<svg width="288" height="124" viewBox="0 0 288 124" fill="none" xmlns="http://www.w3.org/2000/svg">
<path fill-rule="evenodd" clip-rule="evenodd" d="M256.171 0H0V123.295H288V31.8288L256.171 0Z" fill="#CF1235"/>
<path fill-rule="evenodd" clip-rule="evenodd" d="M163.941 31.3107H149.17V25.2426H149.796C150.638 25.2426 151.481 25.2429 152.323 25.2433C155.218 25.2445 158.112 25.2457 161.006 25.2327C161.408 25.2308 161.64 25.3531 161.849 25.6903C162.404 26.5846 162.982 27.4658 163.583 28.3301C163.849 28.7136 163.973 29.0992 163.949 29.5649C163.928 29.959 163.932 30.3546 163.937 30.7626V30.7628V30.7629V30.763V30.7631V30.7636V30.7641V30.7645V30.765C163.939 30.9442 163.941 31.1258 163.941 31.3107ZM149.146 46.1296V38.6129H171.771C171.774 38.586 171.776 38.5616 171.778 38.5392L171.785 38.4776C171.792 38.4116 171.797 38.3649 171.797 38.3182L171.808 36.2613C171.828 32.7333 171.848 29.2053 171.852 25.6773C171.852 25.4063 171.725 25.1032 171.573 24.8689C170.926 23.8675 170.273 22.8698 169.62 21.872C168.837 20.6754 168.054 19.4787 167.28 18.2758C167.053 17.9221 166.819 17.7962 166.398 17.7969C159.628 17.8083 152.857 17.8078 146.087 17.8073L141.921 17.8071H141.294V46.1296H149.146ZM127.635 25.3117C127.583 25.2983 127.543 25.2865 127.51 25.2769C127.457 25.2611 127.425 25.2514 127.392 25.2514L126.127 25.25C122.737 25.2462 119.347 25.2424 115.958 25.2591C115.774 25.26 115.531 25.45 115.417 25.6201C114.669 26.742 113.937 27.8747 113.231 29.0235C113.078 29.273 112.985 29.6021 112.983 29.8952C112.968 32.1273 112.97 34.3596 112.972 36.5918C112.973 37.058 112.973 37.5242 112.974 37.9905C112.974 38.1246 112.981 38.2586 112.989 38.395V38.395V38.395V38.395L112.989 38.3953C112.993 38.4593 112.997 38.5238 113 38.5891C113.041 38.5962 113.077 38.6037 113.109 38.6103C113.167 38.6225 113.213 38.6321 113.258 38.6321L114.651 38.6332C117.98 38.6361 121.309 38.6389 124.637 38.6203C124.839 38.6191 125.105 38.4256 125.23 38.245C125.955 37.1967 126.663 36.1361 127.337 35.055C127.51 34.7776 127.619 34.4119 127.622 34.0853C127.641 32.4386 127.639 30.7916 127.636 29.1447C127.636 28.6106 127.635 28.0766 127.635 27.5426V25.3117ZM105.237 45.4945L105.237 42.1401C105.236 36.7173 105.236 31.2947 105.25 25.872C105.251 25.5277 105.363 25.1384 105.546 24.8473C106.411 23.4731 107.289 22.107 108.167 20.741L108.168 20.7403L108.168 20.7396L108.169 20.7391L108.169 20.7388L108.169 20.7386L108.169 20.7385L108.169 20.7384L108.169 20.7383C108.709 19.8994 109.248 19.0606 109.784 18.2198C109.956 17.9504 110.126 17.7982 110.48 17.7987C117.042 17.8077 123.604 17.8079 130.167 17.8082L135.008 17.8085C135.067 17.8085 135.126 17.8134 135.203 17.8197C135.246 17.8232 135.295 17.8272 135.353 17.8311C135.356 17.8921 135.36 17.9533 135.363 18.0146V18.0148V18.0149V18.015V18.0151V18.0152V18.0153V18.0154C135.371 18.1472 135.379 18.2794 135.379 18.4116L135.38 19.9524V19.9628C135.381 26.0605 135.382 32.1582 135.37 38.2558C135.37 38.5303 135.277 38.8412 135.13 39.0732C134.208 40.5239 133.277 41.9685 132.347 43.4131C131.837 44.2036 131.328 44.9941 130.82 45.7856C130.664 46.029 130.52 46.1836 130.178 46.183C123.612 46.1723 117.046 46.1721 110.479 46.1719H110.476C108.867 46.1719 107.259 46.1719 105.65 46.1717C105.58 46.1717 105.509 46.1662 105.416 46.159L105.416 46.159L105.416 46.159C105.364 46.155 105.306 46.1505 105.237 46.1461V45.4945ZM86.9548 31.0066C86.9525 31.2229 86.8286 31.465 86.6961 31.6484C85.942 32.6927 85.1785 33.7302 84.4035 34.7835L84.401 34.7868L84.3995 34.7889L84.3921 34.7989C84.149 35.1294 83.9046 35.4614 83.6591 35.7957C83.9322 36.1781 84.2028 36.5588 84.472 36.9377L84.4726 36.9385C85.178 37.9311 85.8748 38.9115 86.5869 39.8806C86.8651 40.2592 86.9826 40.6381 86.9755 41.1055C86.9582 42.2426 86.962 43.3801 86.9658 44.5176C86.9669 44.8589 86.9681 45.2002 86.9686 45.5415C86.9688 45.6744 86.9774 45.8073 86.9861 45.9438C86.9903 46.0087 86.9945 46.0745 86.9979 46.1415H94.8602V25.2425C95.1871 25.2425 95.5086 25.2415 95.8263 25.2405C96.6308 25.2379 97.4108 25.2354 98.1905 25.2498C98.539 25.2563 98.7584 25.1628 98.9564 24.8568C99.9646 23.2988 100.983 21.7475 102.002 20.1963L102.004 20.1929C102.425 19.5527 102.845 18.9125 103.265 18.2718C103.322 18.1846 103.371 18.0922 103.423 17.9934L103.423 17.9933L103.423 17.9932L103.423 17.9932C103.448 17.9454 103.475 17.8961 103.503 17.8452H55.2253C55.2685 17.9167 55.3072 17.9819 55.3433 18.0429C55.4135 18.1614 55.474 18.2635 55.5391 18.3626C55.9269 18.9534 56.3156 19.5438 56.7042 20.1341C57.7277 21.6888 58.7511 23.2434 59.7606 24.8071C59.9807 25.1481 60.2165 25.2613 60.6101 25.2515C61.3696 25.2328 62.1297 25.2362 62.9155 25.2397L62.9157 25.2397C63.2333 25.2411 63.555 25.2425 63.8827 25.2425V46.1423H71.7648V25.2773H86.9263C86.9316 25.3174 86.9375 25.354 86.9431 25.3883L86.9431 25.3884L86.9432 25.3884L86.9432 25.3885C86.9541 25.4558 86.9637 25.5141 86.9637 25.5724C86.9642 25.9064 86.9648 26.2404 86.9655 26.5744V26.5744V26.5744V26.5744V26.5744V26.5744V26.5745V26.5745V26.5749C86.9684 28.0522 86.9712 29.5294 86.9548 31.0066ZM71.3581 75.0052V61.7788H85.5912L84.8265 62.8164L84.8258 62.8173L84.8253 62.8179L84.8209 62.824L84.8208 62.8242L84.8144 62.8328L84.8088 62.8404L84.8037 62.8473L84.7989 62.8538C84.1994 63.6674 83.6143 64.4615 83.0276 65.2544C82.8679 65.4703 82.709 65.6867 82.55 65.9032L82.5496 65.9038C82.0527 66.5804 81.5558 67.257 81.0365 67.9159C80.7727 68.2506 80.769 68.4769 81.0295 68.8208C82.1629 70.3174 83.28 71.8263 84.397 73.3353L84.3971 73.3353L84.3971 73.3354L84.3971 73.3354L84.3972 73.3355L84.3972 73.3356L84.3973 73.3356L84.3973 73.3357L84.3973 73.3357L84.3991 73.3381L84.4009 73.3405C84.689 73.7297 84.977 74.1188 85.2654 74.5077C85.3353 74.6019 85.3977 74.7016 85.4698 74.8167L85.4699 74.8168C85.5065 74.8752 85.5455 74.9376 85.5893 75.0052H71.3581ZM94.855 54.2243H63.9414V82.5163H94.8434C94.8434 81.9868 94.8436 81.4592 94.8438 80.933C94.8448 78.8455 94.8457 76.7807 94.8319 74.7161C94.8306 74.5188 94.6962 74.3016 94.5736 74.1292C93.3002 72.3385 92.0258 70.5482 90.7267 68.7761C90.4958 68.461 90.5089 68.2665 90.7345 67.9618C91.3862 67.0813 92.0294 66.1944 92.6725 65.3076L92.6728 65.3071C93.2654 64.4899 93.8579 63.6727 94.4572 62.8606C94.732 62.4882 94.87 62.1211 94.8653 61.6478C94.8485 59.9702 94.8509 58.2925 94.8533 56.6147V56.6137C94.8542 56.0189 94.855 55.4242 94.855 54.8294V54.2243ZM219.229 61.6709L220.658 61.6717C220.728 61.6718 220.798 61.6807 220.879 61.691C220.92 61.6962 220.964 61.7019 221.013 61.7068C221.016 61.7815 221.02 61.853 221.024 61.9224C221.032 62.0645 221.039 62.1976 221.039 62.3307L221.04 62.9974L221.041 63.8085C221.043 66.0325 221.045 68.2565 221.029 70.4804C221.026 70.7903 220.927 71.1391 220.763 71.4015C220.069 72.5133 219.34 73.6045 218.603 74.6887C218.497 74.8444 218.275 75.019 218.106 75.0198C214.619 75.0359 211.131 75.0329 207.644 75.0299L206.673 75.029C206.627 75.029 206.581 75.0176 206.525 75.0035C206.51 74.9998 206.494 74.9958 206.477 74.9918C206.461 74.988 206.444 74.9841 206.426 74.9804L206.424 74.9428L206.42 74.8872L206.415 74.8007C206.406 74.6756 206.398 74.5538 206.398 74.4318C206.398 73.9608 206.397 73.4897 206.397 73.0187V73.0129C206.394 70.7508 206.392 68.4887 206.408 66.2267C206.41 65.9341 206.509 65.6063 206.663 65.3569C207.352 64.242 208.067 63.1419 208.802 62.0561C208.924 61.8768 209.19 61.6867 209.391 61.6856C212.67 61.6667 215.949 61.6688 219.229 61.6709ZM198.662 79.5344L198.662 81.9088C198.662 82.0419 198.67 82.175 198.678 82.3173C198.682 82.3864 198.686 82.4577 198.689 82.5322L198.756 82.5361L198.787 82.5381L198.881 82.5443C199.001 82.5525 199.109 82.5599 199.216 82.56C200.974 82.5602 202.732 82.5603 204.489 82.5603C210.833 82.5605 217.178 82.5607 223.522 82.5709C223.898 82.5715 224.082 82.42 224.264 82.1329C224.801 81.2888 225.342 80.4468 225.882 79.6047L225.886 79.5975L225.888 79.5958L225.888 79.5947L225.889 79.5942L225.889 79.5936L225.889 79.5931L225.89 79.5925C226.753 78.2474 227.616 76.9022 228.466 75.5489C228.649 75.2579 228.762 74.8695 228.763 74.5258C228.777 69.1156 228.776 63.7054 228.775 58.2951L228.775 54.9032L228.775 54.2253C228.71 54.2208 228.652 54.216 228.599 54.2116C228.499 54.2034 228.418 54.1966 228.336 54.1966L226.62 54.1963C219.035 54.1951 211.45 54.1938 203.864 54.2117C203.649 54.2123 203.356 54.4027 203.232 54.5916C201.796 56.7857 200.377 58.9908 198.98 61.2098C198.796 61.5016 198.675 61.8879 198.674 62.2308C198.659 67.9986 198.66 73.7665 198.662 79.5344ZM122.388 61.675L121.087 61.6739H121.085C117.727 61.671 114.368 61.6681 111.01 61.6854C110.826 61.6864 110.584 61.8745 110.47 62.0433C109.736 63.1303 109.018 64.2282 108.327 65.3421C108.172 65.5915 108.07 65.9185 108.068 66.2107C108.052 68.4867 108.054 70.7628 108.056 73.039L108.056 73.0725L108.058 74.4163C108.058 74.5496 108.066 74.6829 108.074 74.8128C108.078 74.8725 108.082 74.9316 108.085 74.9895C108.129 74.9974 108.163 75.0049 108.193 75.0112C108.242 75.022 108.276 75.0292 108.31 75.0293L109.754 75.0304C113.065 75.033 116.377 75.0356 119.688 75.0196C119.875 75.0187 120.123 74.8461 120.236 74.6807C120.977 73.5986 121.701 72.5047 122.398 71.3945C122.554 71.1462 122.652 70.8195 122.658 70.5265C122.677 69.5335 122.675 68.54 122.672 67.5465C122.671 67.1908 122.67 66.8351 122.67 66.4794V61.7238C122.618 61.7146 122.576 61.7056 122.54 61.698C122.477 61.6845 122.433 61.6751 122.388 61.675ZM130.404 54.1955V54.859L130.405 58.2591C130.405 63.6866 130.406 69.1141 130.391 74.5415C130.39 74.8845 130.27 75.271 130.087 75.5627C129.276 76.8518 128.454 78.1335 127.631 79.4152L127.63 79.4175L127.629 79.4188L127.628 79.42L127.627 79.4213L127.627 79.4225L127.626 79.4238C127.044 80.3309 126.461 81.238 125.884 82.1477C125.696 82.4428 125.5 82.5709 125.133 82.5703C118.779 82.5608 112.425 82.5606 106.071 82.5604C104.339 82.5604 102.608 82.5603 100.877 82.5601C100.77 82.5601 100.662 82.5541 100.534 82.5468C100.466 82.5431 100.393 82.5389 100.311 82.5352V81.9277L100.311 78.7029C100.31 73.1985 100.31 67.6941 100.322 62.1896C100.323 61.8807 100.427 61.5315 100.592 61.2698C101.412 59.9712 102.242 58.6788 103.072 57.3864L103.072 57.3863L103.073 57.3862L103.073 57.386L103.073 57.3859L103.073 57.3857C103.67 56.4559 104.267 55.526 104.861 54.5938C105.034 54.322 105.204 54.1858 105.554 54.1863C112.366 54.1962 119.178 54.1959 125.991 54.1956L129.921 54.1955H130.404ZM242.259 64.7773C242.349 64.7825 242.427 64.788 242.498 64.7931C242.631 64.8024 242.737 64.8099 242.844 64.81C243.583 64.8105 244.323 64.8102 245.062 64.81C246.857 64.8094 248.653 64.8088 250.448 64.8186C250.8 64.8205 251.017 64.7232 251.214 64.4182C252.091 63.057 252.973 61.6992 253.855 60.3413L253.858 60.3355C254.776 58.923 255.694 57.5104 256.605 56.0942C256.745 55.8772 256.801 55.5871 256.831 55.3235C256.857 55.0992 256.852 54.8712 256.846 54.6238V54.6234L256.846 54.6224C256.843 54.5102 256.84 54.394 256.84 54.2723C256.911 54.2665 256.977 54.2598 257.04 54.2533C257.169 54.2401 257.286 54.2281 257.403 54.228C258.114 54.227 258.826 54.2274 259.537 54.2278C261.028 54.2287 262.518 54.2296 264.008 54.2181C264.427 54.2147 264.596 54.3072 264.587 54.7686C264.572 55.4843 264.573 56.2002 264.575 56.9161C264.576 57.6418 264.578 58.3675 264.562 59.0928C264.556 59.4012 264.44 59.7455 264.271 60.0063C262.563 62.6401 260.84 65.2649 259.101 67.8783C258.862 68.2371 258.843 68.4845 259.089 68.8544C260.818 71.4526 262.531 74.0613 264.217 76.6867C264.43 77.0183 264.548 77.4644 264.56 77.8619C264.588 78.8071 264.584 79.7533 264.58 80.6995C264.578 81.1397 264.576 81.5798 264.578 82.0199L264.578 82.0274C264.579 82.3022 264.579 82.5264 264.187 82.5243C262.59 82.5158 260.993 82.5148 259.396 82.5138C258.625 82.5133 257.854 82.5128 257.083 82.5114C257.048 82.5114 257.014 82.4992 256.973 82.4846L256.973 82.4845C256.951 82.477 256.928 82.4688 256.902 82.4613C256.897 82.4423 256.889 82.4222 256.881 82.4017C256.863 82.3564 256.844 82.3091 256.851 82.2661C257.01 81.2929 256.551 80.5424 256.038 79.7735C254.418 77.3462 252.832 74.897 251.251 72.4443C251.046 72.1265 250.834 72.0026 250.454 72.0052C248.54 72.0179 246.626 72.0164 244.712 72.0149C244.092 72.0144 243.471 72.014 242.85 72.014H242.259V72.6813C242.259 73.4414 242.258 74.2015 242.258 74.9616V74.9681C242.256 77.2923 242.254 79.6165 242.269 81.9406C242.272 82.407 242.129 82.5334 241.672 82.529C240.139 82.514 238.606 82.5157 237.074 82.5174C236.423 82.5181 235.773 82.5188 235.123 82.5182C235.001 82.5181 234.879 82.5101 234.748 82.5015C234.686 82.4974 234.622 82.4932 234.555 82.4897V54.2554C234.623 54.2519 234.688 54.2477 234.751 54.2436C234.881 54.2352 235.002 54.2273 235.124 54.2272C235.768 54.2267 236.413 54.2274 237.057 54.2281C238.596 54.2298 240.135 54.2316 241.674 54.2163C242.132 54.2119 242.272 54.3417 242.269 54.8063C242.255 57.1347 242.256 59.4634 242.258 61.792C242.259 62.5499 242.259 63.3077 242.259 64.0655V64.7773ZM162.687 54.8931L162.877 54.596L163.115 54.2261H162.695L159.311 54.2264C154.315 54.2269 149.319 54.2275 144.324 54.2166C143.946 54.2158 143.77 54.3797 143.586 54.6653C142.509 56.341 141.43 58.0152 140.351 59.6894L140.345 59.6974L140.343 59.7014L140.34 59.7053C138.851 62.015 137.362 64.3247 135.88 66.6381C135.731 66.8694 135.64 67.1816 135.639 67.4565C135.627 71.7501 135.628 76.0437 135.63 80.3373L135.63 81.9269C135.63 82.0469 135.638 82.1668 135.646 82.2937L135.646 82.2942C135.65 82.3558 135.654 82.4189 135.657 82.4846H163.882V75.121H143.398L143.398 74.7557L143.397 74.1578C143.396 73.1303 143.394 72.1305 143.408 71.1308C143.41 70.9717 143.521 70.8027 143.616 70.6565L143.628 70.6381C144.275 69.6465 144.924 68.6557 145.572 67.665C146.774 65.8275 147.977 63.9901 149.171 62.1476C149.38 61.826 149.612 61.7215 149.983 61.7236C151.166 61.73 152.35 61.73 153.534 61.73H153.536C154.905 61.73 156.273 61.7299 157.642 61.7399C158.076 61.743 158.344 61.6256 158.584 61.2453C159.343 60.0429 160.12 58.8514 160.897 57.66C161.22 57.1648 161.542 56.6696 161.864 56.1736C162.133 55.7581 162.4 55.341 162.687 54.8931ZM184.588 82.4796H176.665V61.8939H164.418C164.498 61.7662 164.57 61.6494 164.639 61.5396C164.765 61.3375 164.876 61.1593 164.987 60.9812C165.313 60.4593 165.64 59.9374 165.967 59.4156L165.967 59.4153C166.963 57.8236 167.96 56.2318 168.95 54.6362C169.12 54.3628 169.297 54.2178 169.648 54.2178C176.911 54.2178 184.175 54.21 191.438 54.2021L196.79 54.1964C196.858 54.1963 196.925 54.2013 197.016 54.208C197.066 54.2116 197.123 54.2158 197.19 54.2199C196.976 54.5559 196.801 54.8309 196.625 55.1057C196.307 55.6048 195.988 56.1036 195.669 56.6025L195.639 56.6489L195.637 56.6513C194.624 58.2366 193.61 59.8219 192.606 61.4136C192.417 61.7135 192.217 61.833 191.854 61.8332C190.117 61.8335 188.38 61.8512 186.642 61.8689L186.641 61.8689C186.177 61.8737 185.713 61.8784 185.249 61.8828C185.116 61.8841 184.984 61.8912 184.834 61.8993C184.757 61.9035 184.676 61.9078 184.588 61.9118V82.4796ZM184.859 25.2425H185.595V46.1522H193.51V25.2425H194.228C194.75 25.2425 195.272 25.2421 195.794 25.2417C197.343 25.2403 198.893 25.239 200.442 25.2493C200.788 25.2517 201.011 25.1696 201.208 24.8589C202.189 23.306 203.181 21.7598 204.173 20.2137C204.587 19.5687 205.001 18.9238 205.414 18.2784C205.47 18.1911 205.518 18.0985 205.57 17.9965C205.596 17.9456 205.624 17.8922 205.654 17.8361H173.251C173.295 17.91 173.335 17.9787 173.373 18.0434C173.447 18.1712 173.512 18.2836 173.583 18.3916C173.996 19.0127 174.409 19.6333 174.823 20.2538C175.822 21.7544 176.822 23.2549 177.81 24.7633C178.037 25.1108 178.273 25.2581 178.7 25.2532C180.215 25.2357 181.729 25.2382 183.244 25.2407C183.782 25.2416 184.321 25.2425 184.859 25.2425Z" fill="white"/>
<path d="M74.72 108.001H71.84V99.0408H67.84V108.001H64.96V96.8008H74.72V108.001Z" fill="white"/>
<path d="M79.3279 108.161C78.7945 108.161 78.2452 108.107 77.6799 108.001V105.841H79.1199C79.4292 105.841 79.6425 105.718 79.7599 105.473C79.8132 105.366 79.8399 105.251 79.8399 105.129C79.8399 105.006 79.8132 104.897 79.7599 104.801L75.3599 96.8008H78.5599L81.4399 102.481L83.8399 96.8008H87.0399L82.9599 105.601C82.5865 106.443 82.1385 107.073 81.6159 107.489C81.0399 107.937 80.2772 108.161 79.3279 108.161Z" fill="white"/>
<path d="M93.1199 108.001H90.2399V99.0408H86.8799V96.8008H96.4799V99.0408H93.1199V108.001Z" fill="white"/>
<path fill-rule="evenodd" clip-rule="evenodd" d="M104.32 100.641H100.48V96.8008H97.5999V108.001H104.32C105.44 108.001 106.253 107.747 106.76 107.241C107.267 106.734 107.52 105.921 107.52 104.801V103.841C107.52 102.721 107.267 101.907 106.76 101.401C106.253 100.894 105.44 100.641 104.32 100.641ZM103.68 102.881C104.32 102.881 104.64 103.201 104.64 103.841V104.801C104.64 105.441 104.32 105.761 103.68 105.761H100.48V102.881H103.68Z" fill="white"/>
<path fill-rule="evenodd" clip-rule="evenodd" d="M113.76 96.8008H120.16C121.205 96.8008 121.973 97.0381 122.464 97.5128C122.955 97.9874 123.2 98.7101 123.2 99.6808C123.2 100.321 123.061 100.841 122.784 101.241C122.507 101.641 122.165 101.921 121.76 102.081C122.624 102.315 123.211 102.891 123.52 103.809C123.627 104.139 123.68 104.523 123.68 104.961C123.68 106.006 123.435 106.774 122.944 107.265C122.453 107.755 121.685 108.001 120.64 108.001H113.76V96.8008ZM120.8 104.481C120.8 103.841 120.48 103.521 119.84 103.521H116.64V105.761H119.84C120.48 105.761 120.8 105.441 120.8 104.801V104.481ZM119.36 99.0408C120 99.0408 120.32 99.3608 120.32 100.001V100.321C120.32 100.961 120 101.281 119.36 101.281H116.64V99.0408H119.36Z" fill="white"/>
<path d="M135.36 108.001H132.48V99.0408H129.12V96.8008H138.72V99.0408H135.36V108.001Z" fill="white"/>
<path fill-rule="evenodd" clip-rule="evenodd" d="M142.72 100.641H146.4C147.52 100.641 148.333 100.894 148.84 101.401C149.347 101.907 149.6 102.721 149.6 103.841V104.801C149.6 105.921 149.347 106.734 148.84 107.241C148.333 107.747 147.52 108.001 146.4 108.001H139.84V96.8008H142.72V100.641ZM153.76 108.001H150.88V96.8008H153.76V108.001ZM145.76 102.881C146.4 102.881 146.72 103.201 146.72 103.841V104.801C146.72 105.441 146.4 105.761 145.76 105.761H142.72V102.881H145.76Z" fill="white"/>
<path d="M164.32 107.841C161.941 108.054 159.968 108.161 158.4 108.161C157.355 108.161 156.587 107.915 156.096 107.425C155.605 106.934 155.36 106.166 155.36 105.121V100.001C155.36 98.8808 155.613 98.0674 156.12 97.5608C156.627 97.0541 157.44 96.8008 158.56 96.8008H164.32V99.0408H159.2C158.56 99.0408 158.24 99.3608 158.24 100.001V105.121C158.24 105.366 158.312 105.561 158.456 105.705C158.6 105.849 158.784 105.921 159.008 105.921C159.232 105.921 159.477 105.918 159.744 105.913C160.011 105.907 160.288 105.899 160.576 105.889C160.864 105.878 161.155 105.867 161.448 105.857C161.741 105.846 162.12 105.825 162.584 105.793C163.048 105.761 163.627 105.723 164.32 105.681V107.841Z" fill="white"/>
<path fill-rule="evenodd" clip-rule="evenodd" d="M172.32 108.001H175.2V96.8008H168.48C167.36 96.8008 166.547 97.0541 166.04 97.5608C165.533 98.0674 165.28 98.8808 165.28 100.001V101.121C165.28 102.006 165.429 102.694 165.728 103.185C166.027 103.675 166.517 104.001 167.2 104.161L165.12 108.001H168.16L170.16 104.321H172.32V108.001ZM169.12 102.081C168.48 102.081 168.16 101.761 168.16 101.121V100.001C168.16 99.3608 168.48 99.0408 169.12 99.0408H172.32V102.081H169.12Z" fill="white"/>
<path d="M183.6 104.321C182.32 104.427 181.112 104.481 179.976 104.481C178.84 104.481 178.027 104.235 177.536 103.745C177.045 103.254 176.8 102.486 176.8 101.441V96.8008H179.68V101.441C179.68 101.686 179.752 101.881 179.896 102.025C180.04 102.169 180.235 102.241 180.48 102.241C181.355 102.241 182.395 102.187 183.6 102.081V96.8008H186.48V108.001H183.6V104.321Z" fill="white"/>
<path d="M191.088 108.161C190.555 108.161 190.005 108.107 189.44 108.001V105.841H190.88C191.189 105.841 191.403 105.718 191.52 105.473C191.573 105.366 191.6 105.251 191.6 105.129C191.6 105.006 191.573 104.897 191.52 104.801L187.12 96.8008H190.32L193.2 102.481L195.6 96.8008H198.8L194.72 105.601C194.347 106.443 193.899 107.073 193.376 107.489C192.8 107.937 192.037 108.161 191.088 108.161Z" fill="white"/>
<path d="M207.6 105.681C207.547 106.449 207.301 107.054 206.864 107.497C206.427 107.939 205.888 108.161 205.248 108.161C204.608 108.161 204.005 108.107 203.44 108.001V105.841H204.16C204.363 105.841 204.531 105.771 204.664 105.633C204.797 105.494 204.869 105.323 204.88 105.121L205.36 96.8008H214.24V108.001H211.36V99.0408H208L207.6 105.681Z" fill="white"/>
<path d="M225.92 108.001H223.04V101.121L219.2 108.001H216.16V96.8008H219.04V103.681L222.88 96.8008H225.92V108.001Z" fill="white"/>
<path fill-rule="evenodd" clip-rule="evenodd" d="M227.36 105.602H230.24V108.002H227.36V105.602ZM231.2 105.602H234.08V108.002H231.2V105.602ZM237.92 105.602H235.04V108.002H237.92V105.602Z" fill="white"/>
</svg>
