<svg width="214" height="84" viewBox="0 0 214 84" fill="none" xmlns="http://www.w3.org/2000/svg">
<path fill-rule="evenodd" clip-rule="evenodd" d="M190.467 0H0V84H214V23.5325L190.467 0Z" fill="#CF1235"/>
<path fill-rule="evenodd" clip-rule="evenodd" d="M110.817 28.2642H99.8412V23.7552H100.306C100.932 23.7552 101.558 23.7555 102.185 23.7558C104.335 23.7566 106.486 23.7575 108.637 23.7479C108.935 23.7465 109.107 23.8374 109.263 24.0879C109.675 24.7524 110.105 25.4072 110.551 26.0494C110.749 26.3344 110.841 26.6209 110.823 26.9669C110.807 27.2597 110.811 27.5536 110.814 27.8567V27.8569V27.857V27.8571V27.8573C110.816 27.9909 110.817 28.1263 110.817 28.2642ZM99.8239 39.2754V33.6901H116.635C116.639 33.6502 116.642 33.6176 116.645 33.5896C116.651 33.5406 116.654 33.5059 116.654 33.4711L116.663 31.9462C116.678 29.3236 116.692 26.7009 116.695 24.0782C116.696 23.8769 116.601 23.6516 116.488 23.4776C116.008 22.7339 115.523 21.993 115.038 21.2521L115.038 21.2519L115.038 21.2516L115.037 21.2514L115.037 21.2509C114.455 20.3617 113.873 19.4724 113.298 18.5785C113.129 18.3157 112.956 18.2222 112.643 18.2227C107.612 18.2312 102.581 18.2308 97.5507 18.2304L94.4548 18.2303H93.9893V39.2754H99.8239ZM83.8398 23.8066C83.801 23.7967 83.7713 23.7879 83.7472 23.7807C83.7078 23.769 83.6835 23.7618 83.6593 23.7617L82.719 23.7607C80.2003 23.7579 77.6815 23.7551 75.1628 23.7675C75.0261 23.7682 74.8455 23.9093 74.7613 24.0357C74.2056 24.8694 73.6611 25.711 73.1368 26.5647C73.023 26.7501 72.9543 26.9946 72.9529 27.2124C72.9415 28.8714 72.943 30.5305 72.9446 32.1896L72.9455 33.2276C72.9456 33.3274 72.9514 33.4271 72.9573 33.5285L72.9573 33.5287C72.9601 33.5762 72.9629 33.624 72.9652 33.6724C72.9959 33.6777 73.0223 33.6833 73.0459 33.6882C73.0893 33.6973 73.1232 33.7044 73.1572 33.7044L74.1918 33.7052H74.1923C76.6657 33.7073 79.1391 33.7095 81.6124 33.6956C81.7625 33.6947 81.9602 33.5509 82.053 33.4167C82.5915 32.6378 83.1178 31.8497 83.6187 31.0464C83.7472 30.8403 83.8276 30.5685 83.8303 30.3259C83.8441 29.1022 83.8425 27.8784 83.8408 26.6546L83.8408 26.646C83.8403 26.2521 83.8398 25.8582 83.8398 25.4643V23.8066ZM67.1971 38.8035L67.1969 36.3119C67.1964 32.2822 67.196 28.2526 67.2065 24.2229C67.2072 23.9671 67.2901 23.6778 67.4262 23.4615C68.0691 22.4405 68.7216 21.4255 69.3742 20.4105L69.3743 20.4105L69.3743 20.4104L69.3744 20.4103L69.3745 20.4101L69.3747 20.4098C69.7758 19.786 70.1769 19.1621 70.5757 18.5369C70.7034 18.3367 70.8296 18.2236 71.0927 18.224C75.9688 18.2307 80.8449 18.2309 85.7209 18.2311L89.318 18.2313C89.3619 18.2313 89.4058 18.2349 89.4634 18.2396L89.4634 18.2396C89.4955 18.2422 89.5319 18.2452 89.5748 18.2481C89.5769 18.2931 89.5796 18.3382 89.5823 18.3835L89.5823 18.3836L89.5823 18.3838L89.5823 18.3839L89.5824 18.3841L89.5824 18.3843L89.5824 18.3844L89.5824 18.3846C89.5882 18.4826 89.5941 18.581 89.5942 18.6795L89.5944 19.826C89.5954 24.3589 89.5964 28.8919 89.5874 33.4248C89.587 33.6288 89.5181 33.8597 89.4087 34.0322C88.7241 35.11 88.0325 36.1834 87.3409 37.2567L87.3383 37.2608C86.9606 37.8469 86.583 38.433 86.2065 39.0199C86.0905 39.2007 85.9834 39.3155 85.7293 39.3151C80.8488 39.3072 75.9683 39.307 71.0879 39.3069L67.5041 39.3067C67.4514 39.3067 67.3988 39.3026 67.3297 39.2973L67.3295 39.2973L67.3291 39.2972L67.3284 39.2972C67.2905 39.2943 67.2476 39.2909 67.1971 39.2877V38.8035ZM53.6122 28.0382C53.6104 28.1989 53.5184 28.3789 53.4199 28.5151C52.8599 29.2907 52.2929 30.0612 51.7173 30.8434L51.7165 30.8444L51.7163 30.8447C51.5329 31.094 51.3485 31.3445 51.1633 31.5967C51.366 31.8806 51.5667 32.1631 51.7666 32.4443L51.7678 32.446L51.7678 32.446L51.7678 32.446L51.7678 32.4461L51.7679 32.4461L51.7679 32.4462L51.7679 32.4462L51.768 32.4462L51.768 32.4463C52.292 33.1837 52.8097 33.9121 53.3388 34.6321C53.5455 34.9134 53.6328 35.195 53.6275 35.5422C53.6147 36.3872 53.6175 37.2324 53.6203 38.0777C53.6212 38.3313 53.622 38.5849 53.6224 38.8385C53.6226 38.9372 53.6289 39.036 53.6354 39.1373C53.6385 39.1856 53.6417 39.2345 53.6442 39.2843H59.4863V23.7552C59.7291 23.7552 59.968 23.7544 60.204 23.7537H60.204H60.2041H60.2041H60.2041H60.2041H60.2041H60.2042H60.2042C60.802 23.7518 61.3815 23.7499 61.9609 23.7606C62.2198 23.7654 62.3829 23.6959 62.53 23.4686C63.2792 22.3108 64.0362 21.1581 64.7931 20.0053L64.7948 20.0029L64.7959 20.0011L64.7966 20L64.7972 19.9992L64.7975 19.9987L64.7978 19.9983L64.7979 19.998L64.7981 19.9977C65.1094 19.5238 65.4206 19.0499 65.7312 18.5756C65.7737 18.5107 65.8101 18.442 65.8491 18.3685L65.8492 18.3682L65.8496 18.3674C65.8683 18.3322 65.8875 18.296 65.9082 18.2586H30.0354C30.0675 18.3117 30.0962 18.3602 30.1231 18.4055C30.1752 18.4935 30.2202 18.5694 30.2685 18.643C30.5567 19.082 30.8454 19.5206 31.1342 19.9592L31.1343 19.9594C31.8948 21.1146 32.6552 22.2697 33.4053 23.4316C33.5689 23.685 33.7441 23.7691 34.0365 23.7619C34.6009 23.7479 35.1657 23.7505 35.7496 23.7531H35.7496L35.7498 23.7531C35.9858 23.7541 36.2249 23.7552 36.4683 23.7552V39.2849H42.3252V23.781H53.591C53.5949 23.8109 53.5993 23.8381 53.6035 23.8636L53.6035 23.8637C53.6117 23.9136 53.6187 23.957 53.6188 24.0003C53.6191 24.2484 53.6196 24.4965 53.6201 24.7446C53.6222 25.8425 53.6244 26.9404 53.6122 28.0382ZM42.0229 60.7317V50.9037H52.5989L52.0302 51.6753C51.5777 52.2894 51.1365 52.8882 50.694 53.4862C50.5753 53.6468 50.457 53.8078 50.3387 53.9689C49.9696 54.4716 49.6004 54.9743 49.2145 55.4639C49.0185 55.7126 49.0158 55.8807 49.2093 56.1363C50.0515 57.2483 50.8815 58.3695 51.7115 59.4907L51.7116 59.4909L51.712 59.4914C51.9269 59.7816 52.1417 60.0719 52.3568 60.3619C52.4088 60.4319 52.4552 60.506 52.5087 60.5916C52.5359 60.635 52.565 60.6814 52.5975 60.7317H42.0229ZM59.4825 45.2903H36.5119V66.3128H59.4738C59.4738 65.9194 59.474 65.5274 59.4742 65.1364C59.4748 63.5852 59.4755 62.0509 59.4653 60.5168C59.4643 60.3702 59.3644 60.2088 59.2733 60.0807C58.3271 58.7501 57.3802 57.4198 56.4149 56.103C56.2433 55.8689 56.253 55.7244 56.4207 55.498C56.9043 54.8446 57.3816 54.1864 57.8588 53.5283L57.859 53.528L57.8593 53.5276L57.8595 53.5273L57.8598 53.527L57.86 53.5266L57.8603 53.5263L57.8605 53.5259L57.8608 53.5256C58.3012 52.9183 58.7415 52.311 59.1869 51.7075C59.391 51.4308 59.4936 51.158 59.4901 50.8064C59.4776 49.5596 59.4794 48.3127 59.4812 47.0658C59.4818 46.6239 59.4825 46.1819 59.4825 45.7399V45.2903ZM151.899 50.8235L152.961 50.8241C153.013 50.8242 153.065 50.8308 153.125 50.8384C153.143 50.8407 153.162 50.8431 153.182 50.8455L153.207 50.8483L153.225 50.8502C153.227 50.9057 153.23 50.9588 153.233 51.0103C153.239 51.1159 153.244 51.2149 153.244 51.3138C153.245 51.6797 153.245 52.0456 153.245 52.4115C153.247 54.0641 153.249 55.7169 153.236 57.3694C153.235 57.5997 153.161 57.8589 153.039 58.0539C152.523 58.88 151.982 59.6908 151.434 60.4964C151.356 60.6121 151.19 60.7419 151.065 60.7425C148.473 60.7544 145.881 60.7522 143.29 60.7499L142.569 60.7493C142.535 60.7493 142.501 60.7408 142.46 60.7304C142.438 60.7249 142.413 60.7188 142.386 60.7132C142.383 60.6679 142.38 60.6235 142.377 60.5795C142.371 60.4866 142.365 60.3961 142.365 60.3056L142.364 59.2537V59.2508C142.362 57.5701 142.361 55.8894 142.372 54.2087C142.374 53.9913 142.447 53.7477 142.562 53.5624C143.074 52.7339 143.606 51.9165 144.152 51.1097C144.242 50.9765 144.44 50.8353 144.589 50.8344C147.025 50.8204 149.461 50.8219 151.898 50.8235H151.899ZM136.617 64.1019L136.617 65.8613C136.617 65.9602 136.623 66.0591 136.629 66.1648V66.1649C136.632 66.2162 136.635 66.2692 136.637 66.3246C136.688 66.3273 136.735 66.3306 136.78 66.3336C136.869 66.3397 136.949 66.3452 137.029 66.3452C138.334 66.3454 139.64 66.3455 140.946 66.3455C145.66 66.3456 150.375 66.3458 155.089 66.3534C155.368 66.3538 155.505 66.2412 155.641 66.0279C156.041 65.3986 156.444 64.7708 156.847 64.143C157.489 63.1425 158.13 62.1421 158.763 61.1356C158.899 60.9194 158.983 60.6308 158.983 60.3754C158.994 56.3617 158.993 52.348 158.993 48.3343V48.3177L158.993 45.7947L158.993 45.291C158.944 45.2877 158.901 45.2841 158.861 45.2808C158.788 45.2747 158.727 45.2697 158.666 45.2697L157.392 45.2695C151.755 45.2685 146.119 45.2676 140.482 45.2809C140.323 45.2813 140.105 45.4228 140.013 45.5632C138.946 47.1935 137.891 48.832 136.853 50.4809C136.717 50.6977 136.627 50.9847 136.626 51.2396C136.614 55.527 136.616 59.8144 136.617 64.1019ZM79.9409 50.8265L78.9717 50.8257C76.4765 50.8236 73.9813 50.8214 71.4862 50.8343C71.3496 50.835 71.1697 50.9748 71.085 51.1002C70.54 51.9079 70.0064 52.7237 69.4926 53.5514C69.3775 53.7367 69.3018 53.9797 69.3002 54.1968C69.2884 55.8876 69.2901 57.5783 69.2918 59.2691V59.2706L69.2927 60.294C69.2928 60.3931 69.2991 60.4921 69.3052 60.5887L69.3097 60.6606C69.3109 60.6805 69.312 60.7003 69.313 60.72C69.3453 60.7258 69.3711 60.7314 69.3928 60.7361L69.393 60.7361L69.3931 60.7361C69.4301 60.7441 69.4551 60.7495 69.4802 60.7495L70.5533 60.7503C73.0138 60.7523 75.4744 60.7542 77.9349 60.7423C78.0736 60.7417 78.2581 60.6134 78.3422 60.4905C78.8922 59.6864 79.4302 58.8736 79.9484 58.0487C80.0643 57.8642 80.137 57.6214 80.1414 57.4037C80.1561 56.6659 80.1539 55.9277 80.1517 55.1895C80.151 54.9252 80.1502 54.6608 80.1502 54.3965V50.8628C80.112 50.8559 80.0807 50.8493 80.054 50.8436C80.0072 50.8336 79.9741 50.8266 79.9409 50.8265ZM85.8976 45.2689V45.7619L85.8978 48.2898C85.8983 52.3223 85.8988 56.3547 85.888 60.3871C85.8872 60.642 85.798 60.9291 85.6617 61.1459C85.0593 62.1039 84.448 63.0564 83.8368 64.0088L83.8359 64.0102C83.4023 64.6858 82.9688 65.3614 82.5383 66.0389C82.3991 66.2581 82.2532 66.3533 81.9804 66.3529C77.2571 66.3458 72.5337 66.3457 67.8103 66.3456L63.9571 66.3453C63.8774 66.3453 63.7976 66.3408 63.7021 66.3355C63.652 66.3327 63.5975 66.3296 63.5365 66.3268V65.8754L63.5363 63.4796C63.5359 59.3894 63.5356 55.2992 63.545 51.209C63.5455 50.9794 63.6226 50.7199 63.7454 50.5255C64.3548 49.5605 64.9716 48.6002 65.5884 47.6398C66.0323 46.9487 66.4762 46.2576 66.9174 45.5648C67.0459 45.3629 67.1725 45.2617 67.4323 45.262C72.4942 45.2694 77.5561 45.2691 82.6181 45.2689L85.5381 45.2689H85.8976ZM169.012 53.1317C169.079 53.1356 169.137 53.1397 169.19 53.1434C169.288 53.1504 169.367 53.1559 169.446 53.156C169.996 53.1564 170.545 53.1562 171.094 53.156H171.096C172.43 53.1556 173.763 53.1551 175.097 53.1624C175.358 53.1638 175.52 53.0915 175.666 52.8649C176.318 51.8524 176.974 50.8423 177.63 49.8323C178.312 48.7823 178.994 47.7324 179.672 46.6797C179.776 46.5184 179.817 46.3029 179.84 46.107C179.859 45.9403 179.855 45.7708 179.851 45.5868C179.849 45.5032 179.847 45.4166 179.847 45.3259C179.899 45.3216 179.948 45.3166 179.995 45.3118L179.995 45.3118C180.09 45.302 180.178 45.2931 180.265 45.293C180.793 45.2923 181.322 45.2926 181.851 45.2929C182.958 45.2935 184.065 45.2942 185.173 45.2856C185.484 45.2832 185.609 45.3518 185.602 45.6947C185.592 46.2264 185.593 46.7583 185.594 47.2902C185.595 47.8295 185.596 48.3688 185.584 48.9078C185.58 49.137 185.493 49.3928 185.368 49.5866C184.099 51.5437 182.819 53.494 181.527 55.4359C181.349 55.7026 181.335 55.8864 181.518 56.1613C182.802 58.0919 184.075 60.0302 185.328 61.9811C185.486 62.2275 185.574 62.559 185.583 62.8543C185.603 63.5566 185.601 64.2596 185.598 64.9627C185.596 65.2898 185.595 65.6169 185.596 65.9439V65.9494C185.597 66.1537 185.597 66.3203 185.306 66.3187C184.119 66.3124 182.932 66.3116 181.746 66.3109C181.173 66.3105 180.6 66.3102 180.027 66.3092C180.001 66.3092 179.975 66.3001 179.945 66.2892L179.927 66.283C179.916 66.2793 179.905 66.2755 179.893 66.2719C179.889 66.2578 179.883 66.2429 179.877 66.2276C179.863 66.194 179.849 66.1588 179.854 66.1268C179.972 65.4037 179.631 64.8461 179.25 64.2747C178.047 62.4711 176.868 60.6512 175.693 58.8287C175.541 58.5926 175.384 58.5005 175.101 58.5024C173.679 58.5119 172.257 58.5108 170.835 58.5097C170.374 58.5093 169.912 58.509 169.451 58.509H169.012V59.0048C169.012 59.5701 169.011 60.1353 169.011 60.7006C169.01 62.4288 169.008 64.1569 169.019 65.885C169.021 66.2316 168.915 66.3255 168.576 66.3222C167.437 66.3111 166.298 66.3123 165.159 66.3136C164.675 66.3141 164.192 66.3146 163.709 66.3142C163.618 66.3141 163.528 66.3081 163.431 66.3018L163.376 66.2982L163.35 66.2966L163.287 66.293V45.3134C163.338 45.3108 163.386 45.3076 163.433 45.3046C163.529 45.2983 163.62 45.2925 163.71 45.2924C164.189 45.292 164.668 45.2925 165.147 45.2931C166.29 45.2944 167.434 45.2957 168.577 45.2843C168.917 45.281 169.021 45.3775 169.019 45.7227C169.008 47.4505 169.01 49.1784 169.011 50.9063V50.9128C169.011 51.4762 169.012 52.0395 169.012 52.6028V53.1317ZM109.886 45.7864L109.959 45.6732L110.203 45.2916H109.891L107.377 45.2918C103.665 45.2922 99.9524 45.2927 96.2403 45.2846C95.9596 45.2839 95.8288 45.4057 95.6925 45.618C94.8912 46.8647 94.0881 48.1104 93.2851 49.356C92.1772 51.0745 91.0693 52.7931 89.9659 54.5144C89.8557 54.6863 89.7881 54.9182 89.7875 55.1225C89.7781 58.3125 89.7792 61.5025 89.7803 64.6926L89.7807 65.8748C89.7807 65.9641 89.7863 66.0532 89.7923 66.1476L89.7923 66.1478L89.7924 66.1483C89.7953 66.1939 89.7982 66.2406 89.8007 66.2892H110.773V60.8176H95.5527C95.5527 60.6595 95.5526 60.5024 95.5524 60.3463L95.5521 60.1018V60.1006C95.551 59.3376 95.55 58.5951 95.5602 57.8528C95.5618 57.7345 95.6439 57.6089 95.7148 57.5003L95.7238 57.4866C96.2009 56.7555 96.6789 56.025 97.1569 55.2945L97.1625 55.2859L97.1681 55.2773L97.1689 55.2761L97.1697 55.2749C98.0626 53.9104 98.9555 52.5459 99.8424 51.1777C99.9973 50.9387 100.17 50.8611 100.445 50.8626C101.325 50.8674 102.204 50.8674 103.084 50.8674H103.086C104.103 50.8674 105.12 50.8674 106.137 50.8748C106.459 50.8771 106.658 50.7898 106.837 50.5073C107.401 49.6138 107.978 48.7285 108.555 47.8432L108.555 47.8428C108.795 47.475 109.035 47.1071 109.274 46.7387C109.473 46.4318 109.67 46.1238 109.882 45.7932L109.885 45.7877L109.886 45.7864ZM126.159 66.2855H120.272V50.9892H111.172L111.335 50.7268C111.38 50.655 111.422 50.5873 111.463 50.5217C111.508 50.4497 111.551 50.3804 111.594 50.311C111.837 49.9234 112.079 49.536 112.322 49.1485C113.063 47.9654 113.803 46.7823 114.539 45.5963C114.665 45.3932 114.797 45.2854 115.058 45.2854C120.455 45.2854 125.853 45.2796 131.25 45.2737L135.226 45.2695C135.276 45.2695 135.326 45.2732 135.394 45.2781C135.431 45.2808 135.473 45.2839 135.523 45.287L135.448 45.4053C135.322 45.6031 135.213 45.7742 135.103 45.9452C134.859 46.3277 134.615 46.7101 134.37 47.0924C133.617 48.2708 132.863 49.4492 132.117 50.6323C131.977 50.8552 131.827 50.944 131.558 50.9441C130.267 50.9443 128.975 50.9575 127.684 50.9707H127.684C127.339 50.9742 126.995 50.9777 126.65 50.981C126.552 50.9819 126.453 50.9872 126.342 50.9932L126.341 50.9932C126.285 50.9963 126.225 50.9995 126.159 51.0025V66.2855ZM126.361 23.7552H126.907V39.2922H132.788V23.7552H133.322C133.71 23.7552 134.098 23.7549 134.486 23.7545C135.637 23.7536 136.788 23.7526 137.94 23.7602C138.197 23.762 138.363 23.701 138.509 23.4701C139.238 22.316 139.975 21.167 140.712 20.018C141.02 19.5389 141.327 19.0599 141.634 18.5805C141.675 18.5156 141.711 18.4469 141.75 18.3711C141.769 18.3332 141.79 18.2936 141.812 18.2518H117.735C117.768 18.3067 117.798 18.3577 117.825 18.4058C117.88 18.5008 117.929 18.5843 117.982 18.6646C118.289 19.1264 118.596 19.5877 118.903 20.0491C119.646 21.1638 120.389 22.2786 121.122 23.3991C121.291 23.6573 121.467 23.7668 121.784 23.7631C122.909 23.7501 124.035 23.752 125.16 23.7539C125.56 23.7545 125.96 23.7552 126.361 23.7552Z" fill="white"/>
</svg>
