<svg width="13" height="20" viewBox="0 0 13 20" fill="none" xmlns="http://www.w3.org/2000/svg">
<path fill-rule="evenodd" clip-rule="evenodd" d="M0 2C0 0.895431 0.895431 0 2 0H11C12.1046 0 13 0.895431 13 2V18C13 19.1046 12.1046 20 11 20H2C0.89543 20 0 19.1046 0 18V2ZM3 17C3 16.4477 3.44772 16 4 16H9C9.55228 16 10 16.4477 10 17C10 17.5523 9.55228 18 9 18H4C3.44772 18 3 17.5523 3 17ZM6.5 2C5.67157 2 5 2.67157 5 3.5C5 4.32843 5.67157 5 6.5 5C7.32843 5 8 4.32843 8 3.5C8 2.67157 7.32843 2 6.5 2Z" fill="#CF1235"/>
</svg>
