<?xml version="1.0" encoding="UTF-8"?>
<svg width="13px" height="20px" viewBox="0 0 13 20" version="1.1" xmlns="http://www.w3.org/2000/svg" xmlns:xlink="http://www.w3.org/1999/xlink">
    <title>Combined Shape</title>
    <g id="Порт-восток" stroke="none" stroke-width="1" fill="none" fill-rule="evenodd">
        <g id="1-контакты-copy" transform="translate(-164.000000, -318.000000)" fill="#36C3FC">
            <g id="Group-3" transform="translate(160.000000, 314.000000)">
                <path d="M15,4 C16.1045695,4 17,4.8954305 17,6 L17,22 C17,23.1045695 16.1045695,24 15,24 L6,24 C4.8954305,24 4,23.1045695 4,22 L4,6 C4,4.8954305 4.8954305,4 6,4 L15,4 Z M13,20 L8,20 C7.44771525,20 7,20.4477153 7,21 C7,21.5522847 7.44771525,22 8,22 L8,22 L13,22 C13.5522847,22 14,21.5522847 14,21 C14,20.4477153 13.5522847,20 13,20 L13,20 Z M10.5,6 C9.67157288,6 9,6.67157288 9,7.5 C9,8.32842712 9.67157288,9 10.5,9 C11.3284271,9 12,8.32842712 12,7.5 C12,6.67157288 11.3284271,6 10.5,6 Z" id="Combined-Shape"></path>
            </g>
        </g>
    </g>
</svg>