<svg width="39" height="25" viewBox="0 0 39 25" fill="none" xmlns="http://www.w3.org/2000/svg">
<path d="M38.27 11.6583L37.0232 7.71073L37.8839 4.95192L36.7734 3.39726L37.71 0.753964C37.8813 0.270469 37.4204 -0.186766 37.0282 0.0776125L35.442 1.14687L33.852 1.80216L30.9879 5.18321L28.5401 5.56151L27.2408 7.29061L24.1375 7.05529L24.2354 5.50564C24.313 4.27886 23.1219 3.49129 22.2357 4.18329L18.8676 6.81305L17.5077 5.47216L15.4327 6.85788L11.3314 5.21568L11.4347 3.68383C11.5262 2.32649 10.2499 1.41113 9.2266 2.10027L7.17728 3.48037L5.1937 3.03965C4.35142 2.85251 3.59643 3.666 3.70628 4.64221L3.82672 5.71215L3.14403 9.397L0.756936 11.0843C0.11997 11.5345 -0.158368 12.4306 0.0904099 13.2402C0.274977 13.8408 0.52078 15.3437 0.789792 16.8971C1.03257 18.2991 2.72623 18.4534 3.15746 17.1124L3.87801 14.8716L4.52176 14.3646C5.05314 13.9461 5.76745 14.0123 6.23338 14.5232L7.4099 15.8133L9.33018 15.6397L12.7993 16.1649L14.0276 19.3019C14.1534 19.6231 14.3814 19.8769 14.6649 20.0115L17.2815 21.2531C17.5529 21.3818 17.8559 21.3922 18.1334 21.2823L20.7118 20.2612L22.1996 21.6671L25.956 22.5833C26.3726 22.6849 26.7907 22.4189 26.9363 21.9597L28.0284 18.5153L29.8992 20.496L32.312 20.6833L31.7248 23.0343C31.5909 23.5705 31.7757 24.1446 32.1814 24.4521C32.7342 24.871 33.4815 24.6469 33.7849 23.9712L35.3597 20.4638L33.7776 16.5475L31.5027 15.9927L31.6191 13.8547L33.1748 12.6294L33.7237 8.9119L35.0224 11.716L35.6512 13.0224C36.0311 13.8115 36.8917 14.1066 37.5867 13.6861C38.2237 13.3007 38.5154 12.4352 38.27 11.6583Z" fill="#CF1235"/>
</svg>
