<svg width="49" height="56" viewBox="0 0 49 56" fill="none" xmlns="http://www.w3.org/2000/svg">
<path fill-rule="evenodd" clip-rule="evenodd" d="M31.9561 13.9306C31.9537 14.1464 31.8299 14.388 31.6973 14.5709C30.9433 15.6126 30.1798 16.6476 29.4048 17.6983C29.1578 18.0331 28.9097 18.3695 28.6603 18.7082C28.9337 19.0901 29.2044 19.4701 29.4739 19.8484C30.1793 20.8386 30.876 21.8166 31.5881 22.7834C31.8663 23.1611 31.9838 23.5391 31.9767 24.0053C31.9595 25.1398 31.9632 26.2745 31.967 27.4093C31.9681 27.7498 31.9693 28.0903 31.9698 28.4308C31.9701 28.5633 31.9786 28.6959 31.9874 28.832C31.9915 28.8969 31.9958 28.9625 31.9992 29.0293H39.8614V8.18034C40.1883 8.18034 40.5098 8.17932 40.8275 8.17831C41.632 8.17576 42.412 8.17328 43.1917 8.18766C43.5402 8.19409 43.7596 8.10077 43.9577 7.79557C44.9659 6.24127 45.9845 4.69374 47.0031 3.14622C47.4243 2.50642 47.8454 1.86661 48.2658 1.22633C48.323 1.13928 48.372 1.04699 48.4244 0.94834C48.4497 0.90068 48.4758 0.851536 48.504 0.800781H0.226562C0.269746 0.872042 0.308422 0.937159 0.344526 0.997944C0.414763 1.1162 0.475264 1.21806 0.540272 1.31687C0.928149 1.90631 1.31678 2.49524 1.70542 3.08417C2.72888 4.63511 3.75231 6.18601 4.76179 7.74593C4.98197 8.08615 5.21769 8.19907 5.61127 8.18932C6.3708 8.17062 7.13089 8.174 7.91669 8.1775C8.23434 8.17891 8.55618 8.18034 8.88389 8.18034V29.0301H16.7661V8.21503H31.9275C31.9328 8.25512 31.9388 8.29171 31.9444 8.32599C31.9554 8.39309 31.9649 8.45131 31.9649 8.50948C31.9654 8.84269 31.966 9.17591 31.9667 9.50913C31.9696 10.983 31.9725 12.4569 31.9561 13.9306ZM24.4534 55.9123L8.45339 33.9123H16.4534L24.4534 43.9123L32.4534 33.9123H40.4534L24.4534 55.9123Z" fill="#CF1235"/>
</svg>
