<?xml version="1.0" encoding="UTF-8"?>
<svg width="49px" height="65px" viewBox="0 0 49 65" version="1.1" xmlns="http://www.w3.org/2000/svg" xmlns:xlink="http://www.w3.org/1999/xlink">
    <title>Group 5</title>
    <g id="Порт-восток" stroke="none" stroke-width="1" fill="none" fill-rule="evenodd">
        <g id="1-контакты-copy" transform="translate(-1403.000000, -668.000000)">
            <g id="Group-5" transform="translate(1403.225318, 667.999990)">
                <polygon id="Combined-Shape" fill="#36C3FC" points="8.22683053 42.9128901 24.2268305 64.9128901 40.2268305 42.9128901 32.2268305 42.9128901 24.2268305 52.9128901 16.2268305 42.9128901"></polygon>
                <path d="M1.77468209,19.6305249 L6.33590014,19.6305249 C6.37076182,19.9916561 6.39519479,20.3337176 6.43869739,20.6730975 C6.58738094,21.8354513 7.22502182,22.5898937 8.36055893,22.8899424 C9.35456359,23.1527458 10.3634664,23.159301 11.3681977,22.950131 C12.6056382,22.692393 13.349056,21.9159013 13.5144254,20.6808445 C13.6142431,19.9365329 13.6613212,19.1525922 13.5397523,18.4178153 C13.3013819,16.9747804 12.1014848,16.0335152 10.5017213,15.9313139 C9.57624809,15.8720192 8.64600751,15.8830439 7.71785267,15.8636763 C7.5766182,15.8606966 7.43508576,15.8630803 7.26852443,15.8630803 L7.26852443,11.8724615 C7.78995973,11.8724615 8.29917854,11.8897433 8.80690755,11.8688859 C9.66116755,11.8334283 10.5258563,11.8447509 11.3652181,11.707092 C12.4149419,11.5345714 12.9563407,10.9103389 13.0904241,9.84869658 C13.1524004,9.35944129 13.1565718,8.84932858 13.0945955,8.36037125 C12.9587244,7.29068398 12.3642882,6.66734532 11.3190338,6.43642397 C10.4120344,6.23589486 9.49758585,6.23529893 8.59088435,6.43880768 C7.51881337,6.67956181 7.00989252,7.27161434 6.90232786,8.36394681 C6.89428286,8.44618461 6.88713175,8.5284224 6.87789489,8.63092168 L2.52376115,8.63092168 C2.53895726,7.00612929 2.8360264,5.49396691 4.03205,4.2827472 C5.17265248,3.1278425 6.57874001,2.50063032 8.1609237,2.27328453 C10.1787293,1.98306854 12.179849,2.07573504 14.1112454,2.78339724 C16.330772,3.59624038 17.5506326,5.23235537 17.7916847,7.55348737 C17.8888207,8.49117702 17.8816696,9.45985483 17.7639742,10.3945649 C17.555996,12.0405126 16.9976133,12.7886978 15.4976674,13.8041558 C15.9371628,14.133107 16.4037729,14.4379232 16.8176436,14.8023319 C17.7392432,15.6136853 18.2362456,16.6708581 18.4337951,17.864498 C18.6930229,19.4332733 18.6188301,20.9963874 18.2156861,22.5332807 C17.6730954,24.6005482 16.3674214,26.0051459 14.3493179,26.6794362 C11.9387969,27.4845324 9.46183028,27.6153381 6.99171677,27.0140487 C4.5865592,26.4288493 2.24516572,24.4295174 1.94124343,21.2594887 C1.89029175,20.7294125 1.83308285,20.2002302 1.77468209,19.6305249 M46.1305611,8.04131244 C44.2673983,8.80439576 42.4331379,9.55526259 40.5762323,10.3159622 C40.1826231,9.45246535 39.6439059,8.72186 38.9362437,8.12176246 C37.459241,6.86942385 35.710496,6.39059726 33.8154511,6.34560484 C32.7544048,6.32027799 31.696636,6.33964558 30.6638962,6.64267398 C29.1055495,7.09974927 28.2337097,8.19029396 28.1630925,9.81449043 C28.1470025,10.1818788 28.1473004,10.5546306 28.1899091,10.9190394 C28.3302497,12.1183406 28.9455434,13.0152093 30.0813784,13.4311657 C31.2166176,13.8471221 32.3914858,14.1570036 33.5553294,14.4910202 C36.0370635,15.2031518 38.4961523,15.9787496 40.8384397,17.0779352 C42.0717087,17.6568774 43.2260175,18.3639436 44.2173405,19.3132538 C45.4994754,20.5411595 46.2619628,22.051832 46.5867425,23.777038 C46.9648576,25.783521 46.9684331,27.798347 46.5477093,29.8024464 C45.921391,32.7844603 44.1640051,34.8442788 41.3869897,36.059074 C39.6897922,36.8015979 37.8963528,37.1579617 36.064774,37.3337599 C34.1417206,37.518497 32.2150917,37.5619996 30.2905485,37.3421028 C27.3818334,37.010172 24.6807985,36.1615733 22.469019,34.1363186 C20.65502,32.4751747 19.6184067,30.3861559 19.1756336,27.9932148 C19.0400604,27.2605237 18.9920884,26.5117427 18.9015076,25.7519369 L26.265068,25.7519369 C26.2915867,26.0808881 26.3002276,26.3743817 26.3413465,26.6631079 C26.6312645,28.6952157 27.8255003,29.9514279 29.7437863,30.5592724 C31.2556507,31.038397 32.8134015,31.0476338 34.3771114,30.9481142 C35.3180787,30.8885216 36.2468294,30.7708262 37.1380369,30.4365117 C38.4702296,29.9371256 39.1799775,28.9601049 39.3060159,27.5680216 C39.3548818,27.0272187 39.3477307,26.4724115 39.2866483,25.9330985 C39.1620997,24.8374884 38.5724309,24.0160043 37.6618559,23.4096496 C36.5087389,22.6417988 35.2173672,22.188895 33.9105013,21.7827714 C31.9353044,21.1689676 29.9425277,20.6114788 27.9718002,19.9848625 C26.756409,19.5981065 25.6050799,19.0528341 24.5541642,18.3147797 C23.0768635,17.2775704 22.0643852,15.8994914 21.5795993,14.1650486 C20.8793862,11.6588816 20.8352877,9.13483676 21.6052241,6.63880046 C22.5378484,3.61566757 24.548205,1.57938823 27.5999423,0.766545085 C31.342358,-0.230141248 35.1357253,-0.292117558 38.8835043,0.80051287 C40.7821247,1.35412818 42.4706812,2.34962266 43.8749809,3.74915501 C45.0575962,4.92789675 45.6815308,6.43082227 46.1305611,8.04131244" id="Combined-Shape" fill="#1D1D1B"></path>
            </g>
        </g>
    </g>
</svg>