<svg width="22" height="31" viewBox="0 0 22 31" fill="none" xmlns="http://www.w3.org/2000/svg">
<g clip-path="url(#clip0_13_2144)">
<path fill-rule="evenodd" clip-rule="evenodd" d="M20.1255 19.5082C18.9902 17.4343 16.3903 16.7286 14.3624 17.9569L13.5925 18.4199C13.5925 18.4199 12.582 16.7388 11.7839 14.8769C10.9857 13.015 10.3913 10.9522 10.3913 10.9522L11.2633 10.4214C13.2439 9.22186 13.9243 6.63158 12.8152 4.58432L11.4713 2.16007C10.3392 0.091985 7.7474 -0.618325 5.71842 0.588609L2.77609 2.37647C-0.540992 4.39754 0.0335392 11.0991 4.46766 19.1674C8.95008 27.2964 13.5659 31.6223 16.9844 29.5518C17.0117 29.5333 17.037 29.5161 17.0611 29.4997C17.1408 29.4455 17.2064 29.4008 17.2844 29.3502C17.3651 29.3107 17.3925 29.2975 17.4299 29.2803L17.579 29.201L19.9151 27.785C21.8997 26.5615 22.5769 23.9768 21.4624 21.9197L20.1255 19.5082ZM15.9137 20.5251C16.4807 20.1817 17.1764 20.3705 17.4965 20.9553L18.833 23.3663C19.1815 24.0161 18.9623 24.8477 18.3493 25.2256L16.0908 26.5945C16.0558 26.6112 16.0176 26.6298 15.9664 26.6548C15.8856 26.6943 15.8582 26.7074 15.8209 26.7247L15.6282 26.8136L15.4677 26.9524C15.4536 26.9646 15.4309 26.9813 15.3525 27.0356C14.3172 27.6594 10.7297 24.3088 7.09713 17.7211C5.39724 14.628 4.9381 12.3169 4.45114 9.86577C4.39503 9.58338 4.33856 9.29913 4.27978 9.01162C3.7955 6.64285 3.97689 5.15831 4.33663 4.93913L7.26534 3.15947C7.82019 2.82949 8.52182 3.02178 8.84234 3.60726L10.183 6.02571C10.5277 6.66219 10.3101 7.49095 9.7052 7.85729L7.74441 9.05072L6.67414 9.70214L7.12446 10.871C7.12446 10.871 7.9776 13.7912 9.15526 16.3248C10.3329 18.8583 11.9782 21.3131 11.9782 21.3131L12.7903 22.4038L15.9137 20.5251Z" fill="white"/>
</g>
<defs>
<clipPath id="clip0_13_2144">
<rect width="21.3449" height="30.066" fill="white" transform="translate(0.653076)"/>
</clipPath>
</defs>
</svg>
