<svg width="31" height="20" viewBox="0 0 31 20" fill="none" xmlns="http://www.w3.org/2000/svg">
<path fill-rule="evenodd" clip-rule="evenodd" d="M3.21633 0C4.49241 0 5.53032 1.03863 5.53032 2.31399C5.53032 3.59007 4.49241 4.62798 3.21633 4.62798C1.94026 4.62798 0.902344 3.59007 0.902344 2.31399C0.902344 1.03792 1.94026 0 3.21633 0ZM3.21657 0.953649C2.466 0.953649 1.85623 1.56414 1.85623 2.31399C1.85623 3.06432 2.466 3.67433 3.21657 3.67433C3.96715 3.67433 4.57691 3.06385 4.57691 2.31399C4.57691 1.56414 3.96691 0.953649 3.21657 0.953649ZM28.5884 4.62804C29.8637 4.62804 30.9023 3.59012 30.9023 2.31405C30.9023 1.03798 29.8644 5.97637e-05 28.5884 5.97637e-05C27.313 5.97637e-05 26.2744 1.03798 26.2744 2.31405C26.2744 3.59012 27.313 4.62804 28.5884 4.62804ZM28.5884 0.953769C29.3387 0.953769 29.9487 1.56425 29.9487 2.31411C29.9487 3.06397 29.3389 3.67445 28.5884 3.67445C27.838 3.67445 27.228 3.06397 27.228 2.31411C27.228 1.56425 27.8378 0.953769 28.5884 0.953769ZM9.36004 17.3684C9.36004 16.0923 10.3987 15.0544 11.674 15.0544C12.9494 15.0544 13.988 16.0923 13.988 17.3684C13.988 18.6445 12.9501 19.6824 11.674 19.6824C10.398 19.6824 9.36004 18.6438 9.36004 17.3684ZM10.3137 17.3683C10.3137 18.1189 10.9237 18.7287 11.674 18.7287C12.4244 18.7287 13.0344 18.1187 13.0344 17.3683C13.0344 16.6178 12.4244 16.008 11.674 16.008C10.9235 16.008 10.3137 16.618 10.3137 17.3683ZM20.1306 15.0544C18.8552 15.0544 17.8166 16.0923 17.8166 17.3684C17.8166 18.6438 18.8545 19.6824 20.1306 19.6824C21.406 19.6824 22.4446 18.6445 22.4446 17.3684C22.4446 16.0923 21.406 15.0544 20.1306 15.0544ZM20.1306 18.7287C19.3803 18.7287 18.7703 18.1189 18.7703 17.3683C18.7703 16.618 19.38 16.008 20.1306 16.008C20.8809 16.008 21.4909 16.6178 21.4909 17.3683C21.4909 18.1187 20.8812 18.7287 20.1306 18.7287ZM28.5884 15.0544C27.313 15.0544 26.2744 16.0923 26.2744 17.3684C26.2744 18.6438 27.3123 19.6824 28.5884 19.6824C29.8637 19.6824 30.9023 18.6445 30.9023 17.3684C30.9023 16.0923 29.8642 15.0544 28.5884 15.0544ZM28.5884 18.7287C27.838 18.7287 27.228 18.1189 27.228 17.3683C27.228 16.618 27.8378 16.008 28.5884 16.008C29.3387 16.008 29.9487 16.6178 29.9487 17.3683C29.9485 18.1187 29.3387 18.7287 28.5884 18.7287ZM22.4446 2.31405C22.4446 3.59012 21.406 4.62804 20.1306 4.62804C18.8552 4.62804 17.8166 3.59012 17.8166 2.31405C17.8166 1.03798 18.8552 5.97637e-05 20.1306 5.97637e-05C21.4067 5.97637e-05 22.4446 1.03798 22.4446 2.31405ZM21.4909 2.31411C21.4909 1.56425 20.8809 0.953769 20.1306 0.953769C19.3803 0.953769 18.7703 1.56425 18.7703 2.31411C18.7703 3.06397 19.3803 3.67445 20.1306 3.67445C20.8812 3.67445 21.4909 3.06397 21.4909 2.31411ZM11.674 4.62804C12.9494 4.62804 13.988 3.59012 13.988 2.31405C13.988 1.03798 12.9501 5.97637e-05 11.674 5.97637e-05C10.398 5.97637e-05 9.36004 1.03798 9.36004 2.31405C9.36004 3.59012 10.3987 4.62804 11.674 4.62804ZM11.674 0.953769C12.4244 0.953769 13.0344 1.56425 13.0344 2.31411C13.0344 3.06397 12.4246 3.67445 11.674 3.67445C10.9237 3.67445 10.3137 3.06397 10.3137 2.31411C10.3137 1.56425 10.9235 0.953769 11.674 0.953769ZM11.6736 14.4629C11.4103 14.4629 11.1971 14.2498 11.1971 13.9864L11.1978 10.3808H3.21694C2.95361 10.3808 2.74047 10.1677 2.74047 9.90434V5.82152C2.74047 5.55819 2.95361 5.34504 3.21694 5.34504C3.48028 5.34504 3.69342 5.55819 3.69342 5.82152V9.4279H11.1974V5.82152C11.1974 5.55819 11.4105 5.34504 11.6738 5.34504C11.9372 5.34504 12.1503 5.55819 12.1503 5.82152V9.4279H19.6542V5.82152C19.6542 5.55819 19.8674 5.34504 20.1307 5.34504C20.3941 5.34504 20.6072 5.55819 20.6072 5.82152V9.4279H28.1105V5.82152C28.1105 5.55819 28.3237 5.34504 28.587 5.34504C28.8503 5.34504 29.0635 5.55819 29.0635 5.82152L29.0632 13.9864C29.0632 14.2498 28.8501 14.4629 28.5868 14.4629C28.3234 14.4629 28.1103 14.2498 28.1103 13.9864V10.3808H20.607V13.9864C20.607 14.2498 20.3938 14.4629 20.1305 14.4629C19.8671 14.4629 19.654 14.2498 19.654 13.9864V10.3808H12.1501V13.9864C12.1501 14.2498 11.9369 14.4629 11.6736 14.4629Z" fill="#E45757"/>
</svg>
