<svg width="31" height="20" viewBox="0 0 31 20" fill="none" xmlns="http://www.w3.org/2000/svg">
<path fill-rule="evenodd" clip-rule="evenodd" d="M3.21658 0C4.49265 0 5.53057 1.03863 5.53057 2.31399C5.53057 3.59007 4.49265 4.62798 3.21658 4.62798C1.9405 4.62798 0.902588 3.59007 0.902588 2.31399C0.902588 1.03792 1.9405 0 3.21658 0ZM3.21682 0.953649C2.46625 0.953649 1.85648 1.56414 1.85648 2.31399C1.85648 3.06432 2.46625 3.67433 3.21682 3.67433C3.96739 3.67433 4.57716 3.06385 4.57716 2.31399C4.57716 1.56414 3.96715 0.953649 3.21682 0.953649ZM28.5886 4.62804C29.864 4.62804 30.9026 3.59012 30.9026 2.31405C30.9026 1.03798 29.8647 5.97637e-05 28.5886 5.97637e-05C27.3132 5.97637e-05 26.2746 1.03798 26.2746 2.31405C26.2746 3.59012 27.3132 4.62804 28.5886 4.62804ZM28.5886 0.953769C29.3389 0.953769 29.9489 1.56425 29.9489 2.31411C29.9489 3.06397 29.3392 3.67445 28.5886 3.67445C27.8383 3.67445 27.2283 3.06397 27.2283 2.31411C27.2283 1.56425 27.838 0.953769 28.5886 0.953769ZM9.36029 17.3684C9.36029 16.0923 10.3989 15.0544 11.6743 15.0544C12.9496 15.0544 13.9883 16.0923 13.9883 17.3684C13.9883 18.6445 12.9504 19.6824 11.6743 19.6824C10.3982 19.6824 9.36029 18.6438 9.36029 17.3684ZM10.3139 17.3683C10.3139 18.1189 10.9239 18.7287 11.6743 18.7287C12.4246 18.7287 13.0346 18.1187 13.0346 17.3683C13.0346 16.6178 12.4246 16.008 11.6743 16.008C10.9237 16.008 10.3139 16.618 10.3139 17.3683ZM20.1308 15.0544C18.8555 15.0544 17.8168 16.0923 17.8168 17.3684C17.8168 18.6438 18.8548 19.6824 20.1308 19.6824C21.4062 19.6824 22.4448 18.6445 22.4448 17.3684C22.4448 16.0923 21.4062 15.0544 20.1308 15.0544ZM20.1308 18.7287C19.3805 18.7287 18.7705 18.1189 18.7705 17.3683C18.7705 16.618 19.3803 16.008 20.1308 16.008C20.8812 16.008 21.4912 16.6178 21.4912 17.3683C21.4912 18.1187 20.8814 18.7287 20.1308 18.7287ZM28.5886 15.0544C27.3132 15.0544 26.2746 16.0923 26.2746 17.3684C26.2746 18.6438 27.3125 19.6824 28.5886 19.6824C29.864 19.6824 30.9026 18.6445 30.9026 17.3684C30.9026 16.0923 29.8644 15.0544 28.5886 15.0544ZM28.5886 18.7287C27.8383 18.7287 27.2283 18.1189 27.2283 17.3683C27.2283 16.618 27.838 16.008 28.5886 16.008C29.3389 16.008 29.9489 16.6178 29.9489 17.3683C29.9487 18.1187 29.3389 18.7287 28.5886 18.7287ZM22.4448 2.31405C22.4448 3.59012 21.4062 4.62804 20.1308 4.62804C18.8555 4.62804 17.8168 3.59012 17.8168 2.31405C17.8168 1.03798 18.8555 5.97637e-05 20.1308 5.97637e-05C21.4069 5.97637e-05 22.4448 1.03798 22.4448 2.31405ZM21.4912 2.31411C21.4912 1.56425 20.8812 0.953769 20.1308 0.953769C19.3805 0.953769 18.7705 1.56425 18.7705 2.31411C18.7705 3.06397 19.3805 3.67445 20.1308 3.67445C20.8814 3.67445 21.4912 3.06397 21.4912 2.31411ZM11.6743 4.62804C12.9496 4.62804 13.9883 3.59012 13.9883 2.31405C13.9883 1.03798 12.9504 5.97637e-05 11.6743 5.97637e-05C10.3982 5.97637e-05 9.36029 1.03798 9.36029 2.31405C9.36029 3.59012 10.3989 4.62804 11.6743 4.62804ZM11.6743 0.953769C12.4246 0.953769 13.0346 1.56425 13.0346 2.31411C13.0346 3.06397 12.4248 3.67445 11.6743 3.67445C10.9239 3.67445 10.3139 3.06397 10.3139 2.31411C10.3139 1.56425 10.9237 0.953769 11.6743 0.953769ZM11.6738 14.4629C11.4105 14.4629 11.1974 14.2498 11.1974 13.9864L11.198 10.3808H3.21719C2.95385 10.3808 2.74071 10.1677 2.74071 9.90434V5.82152C2.74071 5.55819 2.95385 5.34504 3.21719 5.34504C3.48053 5.34504 3.69367 5.55819 3.69367 5.82152V9.4279H11.1976V5.82152C11.1976 5.55819 11.4107 5.34504 11.6741 5.34504C11.9374 5.34504 12.1506 5.55819 12.1506 5.82152V9.4279H19.6545V5.82152C19.6545 5.55819 19.8676 5.34504 20.131 5.34504C20.3943 5.34504 20.6074 5.55819 20.6074 5.82152V9.4279H28.1108V5.82152C28.1108 5.55819 28.3239 5.34504 28.5872 5.34504C28.8506 5.34504 29.0637 5.55819 29.0637 5.82152L29.0635 13.9864C29.0635 14.2498 28.8504 14.4629 28.587 14.4629C28.3237 14.4629 28.1105 14.2498 28.1105 13.9864V10.3808H20.6072V13.9864C20.6072 14.2498 20.3941 14.4629 20.1307 14.4629C19.8674 14.4629 19.6542 14.2498 19.6542 13.9864V10.3808H12.1503V13.9864C12.1503 14.2498 11.9372 14.4629 11.6738 14.4629Z" fill="#36C3FC"/>
</svg>
