<svg width="31" height="22" viewBox="0 0 31 22" fill="none" xmlns="http://www.w3.org/2000/svg">
<path fill-rule="evenodd" clip-rule="evenodd" d="M8.87177 0.69157C9.82776 0.69157 10.6062 1.46938 10.6062 2.42598L10.6063 4.23307C10.6063 5.18951 9.8285 5.96749 8.87167 5.96793H8.86537C8.86537 5.96793 8.25446 6.175 7.50386 6.175H7.39586V8.36727C7.79263 8.61739 8.12797 8.95335 8.37767 9.34952H12.588C12.6975 8.93533 13.0728 8.62674 13.5211 8.62674L17.2831 8.62674C17.7325 8.62674 18.1078 8.93488 18.2173 9.34952H23.3888C23.6385 8.95291 23.9744 8.6174 24.3706 8.36727V6.175H23.9894C23.2387 6.175 22.6281 5.94139 22.6281 5.94139C21.799 5.81187 21.1604 5.09888 21.1604 4.23329V2.42633C21.1604 1.47034 21.9377 0.691919 22.8932 0.691919L29.1491 0.692354C30.1051 0.692354 30.8835 1.47016 30.8835 2.42677V4.23372C30.8835 5.18972 30.1057 5.96814 29.1491 5.96814H29.1428C29.1428 5.96814 28.5319 6.17521 27.7813 6.17521H27.6718V8.36703C28.5485 8.91819 29.1341 9.89177 29.1341 11.0011C29.1341 12.1105 28.5485 13.0835 27.6718 13.6346V15.8249H27.7813C28.532 15.8249 29.1428 16.0339 29.1428 16.0339H29.1491C30.1051 16.0339 30.8835 16.8112 30.8835 17.7668V19.5757C30.8835 20.5312 30.1057 21.3086 29.1491 21.3086H22.8932C21.9381 21.3086 21.1607 20.5313 21.1607 19.5757L21.161 17.7668C21.161 16.9023 21.7997 16.1897 22.6287 16.0606C22.6287 16.0606 23.2396 15.8249 23.9902 15.8249H24.3714V13.6341C23.9752 13.384 23.6393 13.048 23.3896 12.6518H18.2175C18.1072 13.0665 17.732 13.3746 17.2832 13.3746H13.5213C13.0729 13.3746 12.6985 13.0671 12.5885 12.6518H8.37821C8.12853 13.0484 7.79278 13.384 7.39596 13.6341L7.39596 15.8249H7.50397C8.25462 15.8249 8.86547 16.0339 8.86547 16.0339H8.87177C9.82777 16.0339 10.6062 16.8112 10.6062 17.7667V19.5757C10.6062 20.5312 9.82838 21.3085 8.87177 21.3085H2.6164C1.66091 21.3085 0.88355 20.5312 0.88355 19.5757L0.88355 17.7665C0.88355 16.902 1.52227 16.1894 2.35131 16.0603C2.35131 16.0603 2.96222 15.8246 3.71282 15.8246H4.09334V13.6331C3.21756 13.0823 2.63253 12.1095 2.63253 11.0006C2.63253 9.89165 3.21756 8.9187 4.09334 8.36759V6.17487H3.7126C2.96194 6.17487 2.35131 5.94082 2.35131 5.94082C1.52221 5.81131 0.883545 5.09832 0.883545 4.23272L0.883545 2.42577C0.883545 1.46977 1.66085 0.691353 2.6164 0.691353L8.87177 0.69157ZM1.85746 4.23294C1.85746 4.65259 2.19818 4.99378 2.61673 4.99378H8.8721C9.29175 4.99378 9.63294 4.65258 9.63294 4.23294V2.42598C9.63294 2.00633 9.29174 1.66515 8.8721 1.66515H2.61673C2.19821 1.66515 1.85746 2.00634 1.85746 2.42598L1.85746 4.23294ZM8.8721 17.0072C9.29174 17.0072 9.63294 17.3475 9.63294 17.7664V19.5756C9.63294 19.9942 9.29175 20.3349 8.8721 20.3349H2.61673C2.19818 20.3349 1.85746 19.9946 1.85746 19.5756L1.85746 17.7667C1.85746 17.3481 2.19821 17.0074 2.61673 17.0074L8.8721 17.0072ZM5.06736 15.8246H6.42253L6.42258 14.0359C6.20395 14.0845 5.97774 14.1124 5.74497 14.1124C5.51221 14.1124 5.28598 14.085 5.06736 14.0359L5.06736 15.8246ZM13.5213 9.5998L17.2794 9.5998L17.2833 12.4012L13.5268 12.4051L13.5213 9.5998ZM29.91 17.7666C29.91 17.3476 29.5688 17.0073 29.1491 17.0073L22.8932 17.0076C22.4747 17.0076 22.1339 17.3483 22.1339 17.7668V19.5758C22.1339 19.9948 22.4747 20.3351 22.8932 20.3351H29.1491C29.5688 20.3351 29.91 19.9943 29.91 19.5758V17.7666ZM25.345 15.8247V14.036C25.5636 14.0851 25.7894 14.1125 26.0226 14.1125C26.2554 14.1125 26.4807 14.0847 26.6993 14.0367L26.6991 15.8248L25.345 15.8247ZM22.1342 4.23327C22.1342 4.65292 22.4749 4.99411 22.8935 4.99411H29.1494C29.5691 4.99411 29.9103 4.65291 29.9103 4.23327V2.42632C29.9103 2.00667 29.5691 1.66548 29.1494 1.66548H22.8935C22.475 1.66548 22.1342 2.00668 22.1342 2.42632V4.23327ZM26.6987 6.1752V7.96502C26.4805 7.91635 26.2547 7.88918 26.022 7.88918C25.7888 7.88918 25.563 7.917 25.3443 7.96568V6.17519L26.6987 6.1752ZM26.022 13.1392C27.2015 13.1392 28.161 12.1797 28.161 11.0008C28.161 9.82144 27.2015 8.86199 26.022 8.86177C24.843 8.86177 23.8835 9.82122 23.8835 11.0008C23.8835 12.1798 24.843 13.1392 26.022 13.1392ZM22.9869 11.6784H18.2529V10.3232H22.9869C22.9382 10.5419 22.9104 10.7679 22.9104 11.0009C22.9104 11.234 22.9382 11.4598 22.9869 11.6784ZM8.78064 11.6779H12.5532V10.3222H8.78064C8.82932 10.5413 8.85714 10.7671 8.85714 11.0003C8.85714 11.2335 8.82932 11.4597 8.78064 11.6779ZM7.88395 11.0008C7.88395 12.1797 6.9245 13.1392 5.74492 13.1392C4.566 13.1392 3.6065 12.1798 3.6065 11.0008C3.6065 9.82122 4.56594 8.86177 5.74492 8.86177C6.9245 8.86199 7.88395 9.82144 7.88395 11.0008ZM5.74486 7.88886C5.97762 7.88886 6.20385 7.91625 6.42247 7.96536L6.42242 6.17509H5.06725V7.96536C5.28589 7.91668 5.5121 7.88886 5.74486 7.88886Z" fill="#36C3FC"/>
</svg>
