<svg width="31" height="22" viewBox="0 0 31 22" fill="none" xmlns="http://www.w3.org/2000/svg">
<path fill-rule="evenodd" clip-rule="evenodd" d="M8.87201 0.69157C9.82801 0.69157 10.6064 1.46938 10.6064 2.42598L10.6066 4.23307C10.6066 5.18951 9.82875 5.96749 8.87192 5.96793H8.86561C8.86561 5.96793 8.25471 6.175 7.50411 6.175H7.3961V8.36727C7.79288 8.61739 8.12822 8.95335 8.37791 9.34952H12.5882C12.6977 8.93533 13.073 8.62674 13.5213 8.62674L17.2833 8.62674C17.7327 8.62674 18.108 8.93488 18.2175 9.34952H23.389C23.6387 8.95291 23.9747 8.6174 24.3708 8.36727V6.175H23.9896C23.239 6.175 22.6284 5.94139 22.6284 5.94139C21.7993 5.81187 21.1606 5.09888 21.1606 4.23329V2.42633C21.1606 1.47034 21.9379 0.691919 22.8935 0.691919L29.1494 0.692354C30.1054 0.692354 30.8838 1.47016 30.8838 2.42677V4.23372C30.8838 5.18972 30.106 5.96814 29.1494 5.96814H29.1431C29.1431 5.96814 28.5322 6.17521 27.7816 6.17521H27.672V8.36703C28.5487 8.91819 29.1344 9.89177 29.1344 11.0011C29.1344 12.1105 28.5487 13.0835 27.672 13.6346V15.8249H27.7816C28.5322 15.8249 29.1431 16.0339 29.1431 16.0339H29.1494C30.1054 16.0339 30.8838 16.8112 30.8838 17.7668V19.5757C30.8838 20.5312 30.106 21.3086 29.1494 21.3086H22.8935C21.9383 21.3086 21.161 20.5313 21.161 19.5757L21.1612 17.7668C21.1612 16.9023 21.7999 16.1897 22.629 16.0606C22.629 16.0606 23.2399 15.8249 23.9905 15.8249H24.3716V13.6341C23.9755 13.384 23.6395 13.048 23.3898 12.6518H18.2177C18.1075 13.0665 17.7322 13.3746 17.2835 13.3746H13.5215C13.0732 13.3746 12.6987 13.0671 12.5888 12.6518H8.37846C8.12878 13.0484 7.79302 13.384 7.3962 13.6341L7.3962 15.8249H7.50421C8.25486 15.8249 8.86571 16.0339 8.86571 16.0339H8.87202C9.82801 16.0339 10.6064 16.8112 10.6064 17.7667V19.5757C10.6064 20.5312 9.82862 21.3085 8.87202 21.3085H2.61665C1.66115 21.3085 0.883794 20.5312 0.883794 19.5757L0.883794 17.7665C0.883794 16.902 1.52252 16.1894 2.35156 16.0603C2.35156 16.0603 2.96246 15.8246 3.71306 15.8246H4.09358V13.6331C3.21781 13.0823 2.63277 12.1095 2.63277 11.0006C2.63277 9.89165 3.21781 8.9187 4.09358 8.36759V6.17487H3.71284C2.96219 6.17487 2.35155 5.94082 2.35155 5.94082C1.52246 5.81131 0.883789 5.09832 0.883789 4.23272L0.883789 2.42577C0.883789 1.46977 1.66109 0.691353 2.61664 0.691353L8.87201 0.69157ZM1.8577 4.23294C1.8577 4.65259 2.19843 4.99378 2.61698 4.99378H8.87234C9.292 4.99378 9.63318 4.65258 9.63318 4.23294V2.42598C9.63318 2.00633 9.29198 1.66515 8.87234 1.66515H2.61698C2.19845 1.66515 1.8577 2.00634 1.8577 2.42598L1.8577 4.23294ZM8.87234 17.0072C9.29198 17.0072 9.63318 17.3475 9.63318 17.7664V19.5756C9.63318 19.9942 9.292 20.3349 8.87234 20.3349H2.61698C2.19843 20.3349 1.8577 19.9946 1.8577 19.5756L1.8577 17.7667C1.8577 17.3481 2.19845 17.0074 2.61698 17.0074L8.87234 17.0072ZM5.06761 15.8246H6.42277L6.42283 14.0359C6.20419 14.0845 5.97798 14.1124 5.74522 14.1124C5.51245 14.1124 5.28623 14.085 5.06761 14.0359L5.06761 15.8246ZM13.5215 9.5998L17.2796 9.5998L17.2835 12.4012L13.527 12.4051L13.5215 9.5998ZM29.9102 17.7666C29.9102 17.3476 29.569 17.0073 29.1494 17.0073L22.8935 17.0076C22.4749 17.0076 22.1342 17.3483 22.1342 17.7668V19.5758C22.1342 19.9948 22.4749 20.3351 22.8935 20.3351H29.1494C29.569 20.3351 29.9102 19.9943 29.9102 19.5758V17.7666ZM25.3453 15.8247V14.036C25.5639 14.0851 25.7897 14.1125 26.0229 14.1125C26.2556 14.1125 26.481 14.0847 26.6996 14.0367L26.6994 15.8248L25.3453 15.8247ZM22.1345 4.23327C22.1345 4.65292 22.4752 4.99411 22.8937 4.99411H29.1497C29.5693 4.99411 29.9105 4.65291 29.9105 4.23327V2.42632C29.9105 2.00667 29.5693 1.66548 29.1497 1.66548H22.8937C22.4752 1.66548 22.1345 2.00668 22.1345 2.42632V4.23327ZM26.6989 6.1752V7.96502C26.4807 7.91635 26.2549 7.88918 26.0222 7.88918C25.789 7.88918 25.5632 7.917 25.3446 7.96568V6.17519L26.6989 6.1752ZM26.0222 13.1392C27.2018 13.1392 28.1612 12.1797 28.1612 11.0008C28.1612 9.82144 27.2018 8.86199 26.0222 8.86177C24.8432 8.86177 23.8838 9.82122 23.8838 11.0008C23.8838 12.1798 24.8433 13.1392 26.0222 13.1392ZM22.9871 11.6784H18.2531V10.3232H22.9871C22.9385 10.5419 22.9106 10.7679 22.9106 11.0009C22.9106 11.234 22.9385 11.4598 22.9871 11.6784ZM8.78088 11.6779H12.5535V10.3222H8.78088C8.82956 10.5413 8.85738 10.7671 8.85738 11.0003C8.85738 11.2335 8.82956 11.4597 8.78088 11.6779ZM7.88419 11.0008C7.88419 12.1797 6.92475 13.1392 5.74516 13.1392C4.56624 13.1392 3.60674 12.1798 3.60674 11.0008C3.60674 9.82122 4.56619 8.86177 5.74516 8.86177C6.92475 8.86199 7.88419 9.82144 7.88419 11.0008ZM5.74511 7.88886C5.97787 7.88886 6.20409 7.91625 6.42272 7.96536L6.42266 6.17509H5.0675V7.96536C5.28613 7.91668 5.51234 7.88886 5.74511 7.88886Z" fill="#E45757"/>
</svg>
