<svg width="41" height="20" viewBox="0 0 41 20" fill="none" xmlns="http://www.w3.org/2000/svg">
<path fill-rule="evenodd" clip-rule="evenodd" d="M28.2666 0.89508L28.2734 0.99969L28.089 13.1451C28.087 13.5007 27.8224 13.7922 27.4814 13.8409L27.3769 13.848L20.0428 13.8342L20.0695 13.7558C20.1594 13.4193 19.9895 13.0584 19.6585 12.9201C19.2977 12.7681 18.8826 12.939 18.7318 13.3002L18.5918 13.8315L15.0356 13.8248L14.8455 13.0776L14.7992 12.9834C14.6245 12.6855 14.2536 12.5529 13.9237 12.686C13.5612 12.8313 13.3845 13.2445 13.5321 13.6079L13.5865 13.8221L4.226 13.8046L4.28038 13.5981L4.31387 13.4989C4.39964 13.1651 4.22985 12.809 3.9015 12.6718C3.54071 12.5198 3.12567 12.6907 2.97363 13.0515L2.77599 13.8018L1.51007 13.7995C1.15483 13.7963 0.862054 13.5323 0.813465 13.1905L0.806396 13.0858L0.991936 0.940767C0.992936 0.581827 1.26212 0.287412 1.60887 0.243813L1.70522 0.238281L27.5697 0.286001C27.926 0.289515 28.2189 0.553526 28.2666 0.89508ZM2.77599 13.8018L2.26239 15.7518L2.22883 15.8513C2.14299 16.1858 2.31399 16.5413 2.64127 16.678C2.7292 16.7149 2.8197 16.7329 2.91075 16.7338C3.18947 16.7357 3.454 16.5712 3.56914 16.2984L4.226 13.8046L2.77599 13.8018ZM13.5865 13.8221L14.22 16.3172L14.2689 16.4149C14.3981 16.6307 14.6298 16.759 14.8737 16.7608C14.9624 16.7608 15.0544 16.7435 15.1419 16.7088C15.506 16.5627 15.6811 16.1503 15.5346 15.7873L15.0356 13.8248L13.5865 13.8221ZM18.5918 13.8315L18.0205 16.0005L17.9892 16.0916C17.8983 16.4286 18.0694 16.7888 18.3994 16.9267C18.4873 16.9636 18.5778 16.9815 18.6689 16.9824C18.9476 16.9844 19.2121 16.8199 19.3273 16.5471L20.0385 13.8468L20.0428 13.8342L18.5918 13.8315ZM6.48347 14.7279C7.68704 14.7358 8.65886 15.7206 8.65213 16.9246C8.64422 18.1282 7.65785 19.1008 6.45428 19.0928C5.2507 19.0849 4.27929 18.099 4.28602 16.895C4.29512 15.6918 5.2799 14.72 6.48347 14.7279ZM7.56219 16.9174C7.56694 16.3152 7.07927 15.8202 6.47551 15.8163C5.87292 15.8127 5.37953 16.2996 5.37674 16.9038C5.37199 17.5059 5.85888 17.9993 6.46146 18.0029C7.06482 18.0081 7.55744 17.5196 7.56219 16.9174ZM13.4932 16.9562C13.4853 18.1597 12.4989 19.1323 11.2953 19.1244C10.0918 19.1165 9.11995 18.1317 9.12786 16.9282C9.13618 15.7234 10.121 14.7516 11.3245 14.7595C12.5281 14.7674 13.4995 15.7534 13.4932 16.9562ZM10.2392 16.9348C10.2438 16.3445 10.726 15.867 11.3167 15.8704C11.907 15.8751 12.3853 16.3589 12.3819 16.9496C12.3772 17.5399 11.8934 18.0181 11.3031 18.0135C10.7124 18.0101 10.2341 17.5263 10.2392 16.9348ZM24.462 17.0824C24.4552 18.2863 23.4689 19.2589 22.2653 19.251C21.0621 19.2419 20.0891 18.2567 20.0982 17.0536C20.1061 15.85 21.0913 14.877 22.2949 14.8849C23.4973 14.8924 24.4711 15.8792 24.462 17.0824ZM2.40271 1.65826L26.853 1.69837L26.6775 12.426L2.22679 12.3871L2.40271 1.65826ZM21.1605 17.0605C21.165 16.4437 21.6707 15.9438 22.2876 15.9483C22.9048 15.9516 23.4035 16.457 23.3997 17.0754C23.3964 17.6927 22.891 18.1913 22.2726 18.1876C21.6558 18.1831 21.156 17.6773 21.1605 17.0605ZM38.9442 9.11768L39.0176 9.30711L40.1879 12.6497C40.2041 12.695 40.2151 12.7438 40.2221 12.7926L40.2259 12.9099L39.8615 17.2393C39.8326 17.5749 39.5744 17.8391 39.2499 17.8822L39.1507 17.8884L38.1681 17.8811C37.7769 17.8788 37.4617 17.5597 37.464 17.1686C37.4671 16.8133 37.7311 16.5206 38.073 16.472L38.1777 16.4649L38.5055 16.4666L38.7576 13.4694L35.2184 12.8612C33.8528 12.6258 32.8121 11.4892 32.6828 10.1242L32.6711 9.94493L32.625 8.64462L32.0766 8.64119L31.7496 13.6557L31.1369 17.1272C31.1352 17.4817 30.8714 17.7744 30.5295 17.823L30.4248 17.8301L26.4285 17.8033C26.0385 17.8014 25.7221 17.482 25.7256 17.0912C25.7277 16.7356 25.9915 16.4428 26.3334 16.3942L26.4381 16.3871L29.725 16.4093L30.3336 13.6263L30.3348 13.5843L30.7078 7.88253C30.7299 7.54224 30.9895 7.2717 31.3185 7.22692L31.4191 7.22041L36.1408 7.25193C37.3673 7.26028 38.4686 8.00156 38.9442 9.11768ZM36.7463 17.163C36.7538 15.9606 35.7812 14.9742 34.5776 14.9663C33.3752 14.9588 32.3888 15.9314 32.3809 17.135C32.373 18.3385 33.346 19.3237 34.5484 19.3312C35.752 19.3391 36.7379 18.3677 36.7463 17.163ZM35.6389 17.1564C35.6431 16.5633 35.1633 16.0763 34.5698 16.0733C33.9768 16.069 33.491 16.5492 33.4871 17.1411C33.4836 17.7358 33.9627 18.2212 34.5557 18.2254C35.1488 18.2297 35.6346 17.7495 35.6389 17.1564ZM36.1324 8.66852L36.2803 8.67606C36.9157 8.73725 37.468 9.16445 37.6818 9.7754L38.4524 11.9793L35.4582 11.4647L35.3166 11.4339C34.6207 11.2498 34.1126 10.6237 34.0867 9.89475L34.0435 8.65504L36.1324 8.66852Z" fill="#36C3FC"/>
</svg>
