<svg width="30" height="34" viewBox="0 0 30 34" fill="none" xmlns="http://www.w3.org/2000/svg">
<path fill-rule="evenodd" clip-rule="evenodd" d="M18.9711 5.51781C18.9711 2.48809 21.4594 0.000122237 24.4887 0C27.5182 0 29.9996 2.48768 29.9996 5.51781C29.9996 8.54794 27.5182 11.038 24.4887 11.038C22.9465 11.038 21.5469 10.3918 20.5418 9.35866L10.5904 14.3943C10.8725 15.0551 11.0287 15.778 11.0287 16.5373C11.0287 17.2929 10.8745 18.0159 10.595 18.6734L20.5422 23.709C21.5473 22.6759 22.9469 22.032 24.4891 22.032C27.5186 22.032 30 24.5197 30 27.5498C30 30.5796 27.5186 33.0676 24.4891 33.0676C21.4597 33.0676 18.9713 30.5796 18.9713 27.5498C18.9713 26.9204 19.0784 26.3157 19.2758 25.7505L9.18099 20.6433C8.20298 21.5169 6.91308 22.0481 5.50861 22.0481C2.47916 22.0481 0 19.567 0 16.5372C0 13.5074 2.47916 11.0194 5.50861 11.0194C6.91443 11.0194 8.20458 11.5563 9.18336 12.4335L19.2756 7.31709C19.0786 6.75228 18.9711 6.1469 18.9711 5.51781ZM27.1925 5.51781C27.1925 4.00485 25.9999 2.80733 24.4889 2.80733C22.978 2.80733 21.7785 4.00485 21.7785 5.51781C21.7785 7.03068 22.978 8.23057 24.4889 8.23057C25.9999 8.23057 27.1925 7.03076 27.1925 5.51781ZM5.50908 13.8267C7.02002 13.8267 8.22184 15.0243 8.22184 16.5372C8.22184 18.0502 7.02002 19.2408 5.50908 19.2408C3.99815 19.2408 2.8078 18.0502 2.8078 16.5372C2.8078 15.0243 3.99807 13.8267 5.50908 13.8267ZM27.1925 27.5497C27.1925 26.0368 25.9999 24.8462 24.4889 24.8462C22.978 24.8462 21.7785 26.0368 21.7785 27.5497C21.7785 29.0627 22.978 30.2602 24.4889 30.2602C25.9999 30.2602 27.1925 29.0627 27.1925 27.5497Z" fill="black"/>
</svg>
