<svg width="531" height="65" viewBox="0 0 531 65" fill="none" xmlns="http://www.w3.org/2000/svg">
<path d="M0.16 1.4H29.288C36.0347 1.4 42.0187 2.66133 47.24 5.184C52.4613 7.70667 56.5093 11.2853 59.384 15.92C62.2587 20.5547 63.696 25.9813 63.696 32.2C63.696 38.4187 62.2587 43.8453 59.384 48.48C56.5093 53.1147 52.4613 56.6933 47.24 59.216C42.0187 61.7387 36.0347 63 29.288 63H0.16V1.4ZM28.584 49.096C33.864 49.096 38.088 47.6 41.256 44.608C44.4827 41.616 46.096 37.48 46.096 32.2C46.096 26.92 44.4827 22.784 41.256 19.792C38.088 16.8 33.864 15.304 28.584 15.304H17.584V49.096H28.584ZM103.927 64.232C97.4151 64.232 91.5485 62.8533 86.3271 60.096C81.1645 57.3387 77.0871 53.5253 74.0951 48.656C71.1618 43.7867 69.6951 38.3013 69.6951 32.2C69.6951 26.0987 71.1618 20.6133 74.0951 15.744C77.0871 10.8747 81.1645 7.06133 86.3271 4.304C91.5485 1.54666 97.4151 0.167996 103.927 0.167996C110.439 0.167996 116.276 1.54666 121.439 4.304C126.66 7.06133 130.738 10.8747 133.671 15.744C136.663 20.6133 138.159 26.0987 138.159 32.2C138.159 38.3013 136.663 43.7867 133.671 48.656C130.738 53.5253 126.66 57.3387 121.439 60.096C116.276 62.8533 110.439 64.232 103.927 64.232ZM103.927 49.8C107.036 49.8 109.852 49.0667 112.375 47.6C114.898 46.1333 116.892 44.08 118.359 41.44C119.826 38.7413 120.559 35.6613 120.559 32.2C120.559 28.7387 119.826 25.688 118.359 23.048C116.892 20.3493 114.898 18.2667 112.375 16.8C109.852 15.3333 107.036 14.6 103.927 14.6C100.818 14.6 98.0018 15.3333 95.4791 16.8C92.9565 18.2667 90.9618 20.3493 89.4951 23.048C88.0285 25.688 87.2951 28.7387 87.2951 32.2C87.2951 35.6613 88.0285 38.7413 89.4951 41.44C90.9618 44.08 92.9565 46.1333 95.4791 47.6C98.0018 49.0667 100.818 49.8 103.927 49.8ZM205.893 1.4V63H191.549L164.357 30.176V63H147.285V1.4H161.629L188.821 34.224V1.4H205.893ZM259.455 30.88H274.855V56.4C271.335 58.9227 267.287 60.8587 262.711 62.208C258.135 63.5573 253.559 64.232 248.983 64.232C242.53 64.232 236.722 62.8827 231.559 60.184C226.397 57.4267 222.349 53.6133 219.415 48.744C216.482 43.8747 215.015 38.36 215.015 32.2C215.015 26.04 216.482 20.5253 219.415 15.656C222.349 10.7867 226.426 7.00266 231.647 4.304C236.869 1.54666 242.765 0.167996 249.335 0.167996C255.085 0.167996 260.247 1.136 264.823 3.072C269.399 5.008 273.213 7.79467 276.263 11.432L265.175 21.464C261.01 16.888 256.023 14.6 250.215 14.6C244.935 14.6 240.682 16.2133 237.455 19.44C234.229 22.608 232.615 26.8613 232.615 32.2C232.615 35.6027 233.349 38.6533 234.815 41.352C236.282 43.992 238.335 46.0747 240.975 47.6C243.615 49.0667 246.637 49.8 250.039 49.8C253.383 49.8 256.522 49.1253 259.455 47.776V30.88ZM303.326 14.864V28.416H330.518V41.88H303.326V63H285.902V1.4H334.214V14.864H303.326ZM391.819 49.536V63H342.363V1.4H390.675V14.864H359.611V25.248H386.979V38.272H359.611V49.536H391.819ZM460.096 1.4V63H445.752L418.56 30.176V63H401.488V1.4H415.832L443.024 34.224V1.4H460.096ZM513.659 30.88H529.059V56.4C525.539 58.9227 521.491 60.8587 516.915 62.208C512.339 63.5573 507.763 64.232 503.187 64.232C496.733 64.232 490.925 62.8827 485.763 60.184C480.6 57.4267 476.552 53.6133 473.619 48.744C470.685 43.8747 469.219 38.36 469.219 32.2C469.219 26.04 470.685 20.5253 473.619 15.656C476.552 10.7867 480.629 7.00266 485.851 4.304C491.072 1.54666 496.968 0.167996 503.539 0.167996C509.288 0.167996 514.451 1.136 519.027 3.072C523.603 5.008 527.416 7.79467 530.467 11.432L519.379 21.464C515.213 16.888 510.227 14.6 504.419 14.6C499.139 14.6 494.885 16.2133 491.659 19.44C488.432 22.608 486.819 26.8613 486.819 32.2C486.819 35.6027 487.552 38.6533 489.019 41.352C490.485 43.992 492.539 46.0747 495.179 47.6C497.819 49.0667 500.84 49.8 504.243 49.8C507.587 49.8 510.725 49.1253 513.659 47.776V30.88Z" fill="white"/>
</svg>
