<svg width="344" height="65" viewBox="0 0 344 65" fill="none" xmlns="http://www.w3.org/2000/svg">
<path d="M26.808 64.232C21.8213 64.232 16.9813 63.616 12.288 62.384C7.59467 61.152 3.78133 59.5093 0.848 57.456L6.568 44.608C9.32533 46.4267 12.5227 47.8933 16.16 49.008C19.7973 50.1227 23.376 50.68 26.896 50.68C33.584 50.68 36.928 49.008 36.928 45.664C36.928 43.904 35.96 42.6133 34.024 41.792C32.1467 40.912 29.096 40.0027 24.872 39.064C20.2373 38.0667 16.3653 37.0107 13.256 35.896C10.1467 34.7227 7.47733 32.8747 5.248 30.352C3.01867 27.8293 1.904 24.4267 1.904 20.144C1.904 16.3893 2.93067 13.016 4.984 10.024C7.03733 6.97333 10.088 4.568 14.136 2.808C18.2427 1.048 23.2587 0.167996 29.184 0.167996C33.232 0.167996 37.2213 0.63733 41.152 1.576C45.0827 2.456 48.544 3.776 51.536 5.536L46.168 18.472C40.3013 15.304 34.6107 13.72 29.096 13.72C25.6347 13.72 23.112 14.248 21.528 15.304C19.944 16.3013 19.152 17.6213 19.152 19.264C19.152 20.9067 20.0907 22.1387 21.968 22.96C23.8453 23.7813 26.8667 24.632 31.032 25.512C35.7253 26.5093 39.5973 27.5947 42.648 28.768C45.7573 29.8827 48.4267 31.7013 50.656 34.224C52.944 36.688 54.088 40.0613 54.088 44.344C54.088 48.04 53.0613 51.384 51.008 54.376C48.9547 57.368 45.8747 59.7733 41.768 61.592C37.6613 63.352 32.6747 64.232 26.808 64.232ZM62.1366 1.4H79.5606V63H62.1366V1.4ZM105.069 15.216H86.1489V1.4H141.325V15.216H122.493V63H105.069V15.216ZM174.744 46.632H165.24V63H147.816V1.4H175.976C181.55 1.4 186.39 2.33866 190.496 4.216C194.603 6.03466 197.771 8.67466 200 12.136C202.23 15.5387 203.344 19.5573 203.344 24.192C203.344 28.6507 202.288 32.552 200.176 35.896C198.123 39.1813 195.16 41.7627 191.288 43.64L204.576 63H185.92L174.744 46.632ZM185.744 24.192C185.744 21.3173 184.835 19.088 183.016 17.504C181.198 15.92 178.499 15.128 174.92 15.128H165.24V33.168H174.92C178.499 33.168 181.198 32.4053 183.016 30.88C184.835 29.296 185.744 27.0667 185.744 24.192ZM254.229 51.032H228.181L223.341 63H205.565L232.757 1.4H249.917L277.197 63H259.069L254.229 51.032ZM249.125 38.184L241.205 18.472L233.285 38.184H249.125ZM305.897 40.648L299.385 47.6V63H282.137V1.4H299.385V27.008L323.233 1.4H342.417L317.249 28.68L343.737 63H323.497L305.897 40.648Z" fill="white"/>
</svg>
