<svg width="168" height="52" viewBox="0 0 168 52" fill="none" xmlns="http://www.w3.org/2000/svg">
<path fill-rule="evenodd" clip-rule="evenodd" d="M87.238 10.8488H75.3846V5.97734H75.8869C76.5629 5.97734 77.239 5.97762 77.9151 5.9779C80.2377 5.97887 82.5603 5.97983 84.8829 5.9694C85.205 5.96789 85.3911 6.06607 85.559 6.33673C86.0043 7.05472 86.4681 7.76209 86.9501 8.45599C87.1639 8.76384 87.2637 9.07338 87.2438 9.44722C87.227 9.76376 87.2307 10.0814 87.2346 10.4091C87.2363 10.5535 87.238 10.6998 87.238 10.8488ZM75.3659 22.7452V16.7109H93.521C93.5248 16.6678 93.5286 16.6325 93.5317 16.6023L93.5318 16.6022L93.5318 16.6014L93.5319 16.6013C93.5374 16.5488 93.5413 16.5116 93.5415 16.4743L93.5507 14.8224C93.5666 11.9903 93.5826 9.15832 93.5856 6.3263C93.5859 6.10879 93.4837 5.86542 93.3622 5.67734C92.8427 4.87343 92.3187 4.07246 91.7947 3.27148C91.1663 2.31083 90.5378 1.35017 89.9172 0.384455C89.7348 0.100507 89.5471 -0.000532964 89.2095 2.11251e-06C83.7767 0.0091781 78.3439 0.00877504 72.911 0.00837198L69.5677 0.00820662H69.065V22.7452H75.3659ZM58.1043 6.03281C58.0624 6.02211 58.0304 6.01259 58.0044 6.00488C57.9618 5.99221 57.9356 5.98444 57.9094 5.98439L56.8937 5.98329C54.1738 5.98026 51.4538 5.97723 48.7339 5.99063C48.5863 5.99134 48.3912 6.14384 48.3003 6.28037C47.7002 7.18108 47.1122 8.09036 46.546 9.01265C46.4231 9.21295 46.3489 9.4771 46.3473 9.71244C46.335 11.5048 46.3367 13.2973 46.3385 15.0897L46.3394 16.2112C46.3395 16.3189 46.3458 16.4265 46.3522 16.536V16.536V16.536V16.5361V16.5361V16.5361V16.5362V16.5362C46.3552 16.5876 46.3582 16.6394 46.3606 16.6918C46.3938 16.6975 46.4223 16.7035 46.4478 16.7088C46.4947 16.7186 46.5313 16.7263 46.568 16.7263L47.6852 16.7272C50.3565 16.7295 53.0278 16.7318 55.699 16.7169C55.861 16.7159 56.0745 16.5605 56.1748 16.4155C56.7563 15.574 57.3246 14.7225 57.8655 13.8546C58.0043 13.632 58.0911 13.3384 58.0941 13.0762C58.109 11.7542 58.1072 10.4319 58.1055 9.1097C58.1049 8.68107 58.1043 8.25243 58.1043 7.8238V6.03281ZM40.1316 22.2354L40.1314 19.5436C40.1309 15.1899 40.1304 10.8363 40.1417 6.48263C40.1425 6.20626 40.232 5.89369 40.379 5.66004C41.0732 4.55691 41.7779 3.46038 42.4826 2.36384L42.4828 2.3636L42.483 2.36328L42.4832 2.36291L42.4839 2.36183L42.4844 2.36103L42.4848 2.36045L42.485 2.3601L42.4851 2.36002L42.4851 2.35994L42.4852 2.3599C42.9177 1.68695 43.3501 1.014 43.7802 0.339509C43.9181 0.123249 44.0544 0.00107281 44.3386 0.00142953C49.6043 0.00865893 54.8701 0.00887932 60.1358 0.0090997L64.0204 0.0093665C64.0678 0.0093665 64.1152 0.0132332 64.1774 0.0183161L64.1774 0.0183178C64.2121 0.0211444 64.2513 0.024347 64.2977 0.0274699C64.3 0.0761027 64.3029 0.12485 64.3058 0.173679L64.3059 0.174814C64.3122 0.280781 64.3185 0.38713 64.3186 0.493521L64.3188 1.74075C64.3199 6.63528 64.321 11.5298 64.3113 16.4243C64.3108 16.6446 64.2365 16.8941 64.1183 17.0804C63.379 18.245 62.6321 19.4047 61.8851 20.5645L61.8833 20.5672C61.4752 21.2009 61.0671 21.8346 60.6602 22.4691C60.5349 22.6645 60.4193 22.7885 60.1449 22.7881C54.8742 22.7795 49.6034 22.7794 44.3327 22.7792L40.4631 22.779C40.4062 22.779 40.3494 22.7746 40.2748 22.7688L40.2747 22.7688L40.2745 22.7688L40.2743 22.7688C40.2331 22.7656 40.1865 22.762 40.1316 22.7585V22.2354ZM25.461 10.6046C25.4591 10.7783 25.3597 10.9727 25.2534 11.1199C24.6483 11.9582 24.0357 12.7911 23.4137 13.6366C23.2156 13.906 23.0165 14.1767 22.8164 14.4492C23.0347 14.7552 23.251 15.0596 23.4663 15.3627L23.4688 15.3663L23.4691 15.3666C24.0351 16.1635 24.5943 16.9506 25.1658 17.7286C25.389 18.0326 25.4833 18.3368 25.4776 18.7119C25.4637 19.6248 25.4668 20.5379 25.4698 21.4511C25.4707 21.7251 25.4716 21.9991 25.472 22.2731C25.4722 22.3798 25.4791 22.4865 25.4861 22.5961C25.4895 22.6482 25.4929 22.701 25.4956 22.7548H31.8046V5.97729C32.0669 5.97729 32.3249 5.97647 32.5798 5.97566C33.2254 5.9736 33.8513 5.9716 34.4769 5.98318C34.7566 5.98835 34.9326 5.91326 35.0915 5.66766C35.9004 4.41714 36.7176 3.17206 37.5349 1.927L37.5354 1.92623L37.5373 1.92324L37.5387 1.92117C37.8755 1.408 38.2124 0.89483 38.5486 0.381282C38.5943 0.311459 38.6335 0.237448 38.6754 0.158354L38.6755 0.158162L38.6756 0.157978L38.6757 0.157802L38.6758 0.157694L38.6758 0.157628L38.6758 0.157588L38.6758 0.157564C38.6961 0.119215 38.7171 0.0796722 38.7397 0.0388329H0C0.0346521 0.0961777 0.0656874 0.148578 0.0946583 0.197493C0.15102 0.292654 0.199568 0.374623 0.251732 0.454141C0.562982 0.928472 0.874838 1.4024 1.18669 1.87632C2.00796 3.12438 2.8292 4.37241 3.63925 5.62771C3.81592 5.90149 4.00508 5.99236 4.3209 5.98451C4.93038 5.96946 5.5403 5.97218 6.17086 5.975H6.171H6.17113H6.17127H6.1714H6.17154H6.17168H6.17181H6.17196C6.42649 5.97614 6.68439 5.97729 6.94698 5.97729V22.7554H13.2719V6.0052H25.4381C25.4423 6.03746 25.4471 6.06691 25.4516 6.09449C25.4604 6.14849 25.4681 6.19534 25.4681 6.24215C25.4685 6.51031 25.469 6.77846 25.4695 7.04662V7.04705C25.4718 8.23293 25.4742 9.41884 25.461 10.6046ZM12.9455 45.9263V35.3083H24.3667L23.7514 36.1435C23.2632 36.8064 22.787 37.4529 22.3097 38.0984C22.1814 38.2719 22.0537 38.4458 21.926 38.6198C21.5273 39.1629 21.1286 39.7061 20.7119 40.2351C20.5002 40.5038 20.4972 40.6854 20.7063 40.9615C21.6154 42.1624 22.5113 43.3732 23.4073 44.5841L23.4075 44.5843L23.4076 44.5845L23.4078 44.5847L23.4079 44.5849L23.4081 44.5852L23.4083 44.5854L23.4084 44.5856L23.4086 44.5858C23.6407 44.8996 23.8729 45.2133 24.1053 45.5269C24.1614 45.6025 24.2115 45.6825 24.2693 45.7749L24.2694 45.775C24.2987 45.8219 24.3301 45.872 24.3652 45.9263H12.9455ZM31.8004 29.2436H6.99408V51.9561H31.7911C31.7911 51.5311 31.7913 51.1075 31.7914 50.6851V50.6849V50.6847V50.6845V50.6843V50.6841V50.6839V50.6837V50.6835C31.7922 49.0082 31.7929 47.3511 31.7819 45.6942C31.7808 45.5358 31.673 45.3615 31.5745 45.2231C30.5527 43.7855 29.5301 42.3483 28.4877 40.9256C28.3024 40.6727 28.3129 40.5165 28.4939 40.2719C29.0167 39.5654 29.5325 38.8538 30.0483 38.1421L30.0484 38.142L30.0485 38.1419L30.0486 38.1417L30.0487 38.1416L30.0488 38.1415L30.0489 38.1413L30.049 38.1412L30.0491 38.141L30.0496 38.1403L30.0498 38.1401C30.5251 37.4843 31.0005 36.8285 31.4812 36.1767C31.7017 35.8778 31.8125 35.583 31.8086 35.2031C31.7952 33.8561 31.7971 32.5089 31.7991 31.1618C31.7997 30.6843 31.8004 30.2068 31.8004 29.7294V29.2436ZM131.603 35.2216L132.749 35.2223C132.806 35.2224 132.862 35.2295 132.927 35.2378L132.927 35.2378L132.928 35.2379C132.961 35.2421 132.996 35.2465 133.034 35.2505C133.037 35.3104 133.04 35.3678 133.043 35.4235C133.05 35.5376 133.056 35.6445 133.056 35.7513L133.056 36.2818L133.057 36.9395V36.9449C133.058 38.7279 133.06 40.5109 133.047 42.2938C133.045 42.5426 132.965 42.8226 132.834 43.0333C132.277 43.9258 131.692 44.8018 131.101 45.6722C131.016 45.7972 130.838 45.9374 130.702 45.938C127.904 45.9509 125.105 45.9485 122.307 45.9461H122.305L121.527 45.9454C121.491 45.9454 121.454 45.9362 121.409 45.925C121.385 45.919 121.359 45.9124 121.329 45.9064C121.327 45.8575 121.323 45.8095 121.32 45.762C121.314 45.6616 121.307 45.5638 121.307 45.466L121.306 44.3301C121.304 42.513 121.302 40.696 121.315 38.879C121.316 38.6441 121.396 38.381 121.519 38.1808C122.073 37.2857 122.646 36.4025 123.236 35.5309C123.334 35.3869 123.548 35.2344 123.708 35.2335C126.34 35.2183 128.971 35.22 131.603 35.2216ZM115.099 49.571L115.1 51.4684C115.1 51.5753 115.106 51.6821 115.112 51.7964L115.112 51.7985C115.115 51.8533 115.118 51.9098 115.121 51.9689C115.144 51.9701 115.166 51.9715 115.188 51.9729L115.275 51.9786L115.275 51.9786C115.371 51.9852 115.458 51.9911 115.544 51.9912C116.955 51.9914 118.365 51.9914 119.776 51.9915C124.866 51.9916 129.957 51.9918 135.048 52C135.349 52.0004 135.497 51.8788 135.643 51.6484C136.076 50.9687 136.511 50.2907 136.945 49.6127L136.946 49.6121L136.946 49.6116L136.946 49.611L136.947 49.6105L136.947 49.6099L136.948 49.6094C137.64 48.5293 138.333 47.4493 139.015 46.3628C139.162 46.1291 139.252 45.8174 139.253 45.5414C139.264 41.1998 139.264 36.8581 139.263 32.5164L139.263 29.7886L139.263 29.2444C139.211 29.2408 139.164 29.2369 139.122 29.2334C139.042 29.2268 138.976 29.2213 138.911 29.2213L137.535 29.2211C131.448 29.2201 125.361 29.2191 119.274 29.2335C119.101 29.2339 118.866 29.3868 118.767 29.5385C117.614 31.2999 116.475 33.0701 115.354 34.8515C115.207 35.0857 115.11 35.3959 115.109 35.6712C115.097 40.3044 115.098 44.9377 115.099 49.571ZM53.8939 35.2249L52.8487 35.2241C50.1536 35.2217 47.4585 35.2194 44.7635 35.2333C44.616 35.2341 44.4217 35.3851 44.3302 35.5206C43.7417 36.3933 43.1654 37.2746 42.6105 38.1688C42.4863 38.369 42.4045 38.6316 42.4028 38.8661C42.39 40.6932 42.3918 42.5204 42.3937 44.3475L42.3947 45.4535C42.3948 45.5605 42.4016 45.6675 42.4082 45.7718C42.4104 45.807 42.4126 45.8419 42.4146 45.8764L42.4165 45.9137C42.4515 45.9201 42.4794 45.9261 42.5029 45.9311L42.503 45.9311C42.543 45.9397 42.5701 45.9456 42.5971 45.9456L43.7578 45.9465H43.7598C46.4157 45.9486 49.0716 45.9507 51.7275 45.9379C51.8773 45.9372 52.0766 45.7986 52.1673 45.6658C52.7614 44.7971 53.3424 43.9189 53.9019 43.0277C54.0271 42.8284 54.1056 42.5661 54.1103 42.3308C54.1262 41.5336 54.1239 40.7361 54.1216 39.9385C54.1207 39.653 54.1199 39.3674 54.1199 39.0818V35.2641C54.0786 35.2567 54.0449 35.2495 54.016 35.2434C53.9654 35.2326 53.9297 35.225 53.8939 35.2249ZM60.3266 29.2205V29.7531L60.3269 32.4849C60.3274 36.8413 60.3279 41.1977 60.3162 45.554C60.3154 45.8294 60.219 46.1397 60.0719 46.3739C59.4209 47.4094 58.7604 48.439 58.1 49.4687L58.0992 49.4699C57.6313 50.1993 57.1634 50.9287 56.6989 51.6602C56.5485 51.8971 56.391 51.9999 56.0964 51.9995C50.995 51.9918 45.8936 51.9917 40.7921 51.9915C39.4056 51.9915 38.0192 51.9915 36.6327 51.9913C36.5466 51.9913 36.4605 51.9864 36.3573 51.9806C36.3032 51.9776 36.2444 51.9743 36.1784 51.9713V51.4836L36.1782 48.8953C36.1778 44.4762 36.1774 40.0571 36.1876 35.6381C36.1882 35.3901 36.2715 35.1097 36.404 34.8997C37.0621 33.8572 37.7282 32.8197 38.3942 31.7823L38.3944 31.782L38.3945 31.7819L38.3946 31.7817L38.3947 31.7816L38.3947 31.7815L38.3948 31.7813C38.874 31.0349 39.3533 30.2885 39.8295 29.5402C39.9683 29.322 40.105 29.2127 40.3856 29.2131C45.8514 29.221 51.3171 29.2208 56.783 29.2205L59.9384 29.2205H60.3266ZM150.083 37.7154C150.112 37.7171 150.139 37.7188 150.165 37.7205C150.19 37.7221 150.213 37.7237 150.236 37.7253L150.275 37.7281C150.382 37.7356 150.467 37.7416 150.552 37.7417C151.145 37.7421 151.739 37.7419 152.332 37.7417H152.334C153.774 37.7412 155.214 37.7407 156.654 37.7486C156.937 37.7501 157.111 37.672 157.269 37.4271C157.97 36.3375 158.676 35.2505 159.382 34.1635L159.384 34.1605L159.387 34.1561L159.391 34.1503L159.393 34.1471C160.128 33.014 160.864 31.8808 161.595 30.7447C161.707 30.5705 161.752 30.3376 161.777 30.126C161.798 29.9459 161.793 29.7628 161.788 29.564C161.786 29.4737 161.784 29.3801 161.784 29.2821C161.816 29.2795 161.847 29.2765 161.878 29.2736L161.944 29.2668C162.047 29.2563 162.141 29.2466 162.235 29.2465C162.806 29.2458 163.377 29.2461 163.948 29.2464C165.144 29.2471 166.34 29.2478 167.535 29.2386C167.872 29.2359 168.007 29.3101 168 29.6806C167.988 30.255 167.989 30.8297 167.99 31.4044C167.991 31.987 167.993 32.5696 167.98 33.152C167.975 33.3995 167.882 33.676 167.746 33.8853C166.376 35.9997 164.994 38.1069 163.598 40.2049C163.406 40.4929 163.391 40.6915 163.589 40.9885C164.975 43.0743 166.35 45.1685 167.703 47.2762C167.874 47.5424 167.969 47.9005 167.978 48.2196C168.001 48.9786 167.998 49.7383 167.994 50.498C167.993 50.8512 167.991 51.2045 167.993 51.5576V51.5636C167.993 51.7843 167.994 51.9642 167.679 51.9626C166.398 51.9557 165.118 51.9549 163.837 51.9541H163.834C163.216 51.9537 162.597 51.9533 161.978 51.9522C161.951 51.9522 161.923 51.9424 161.89 51.9307C161.873 51.9246 161.854 51.918 161.834 51.912C161.829 51.8968 161.823 51.8808 161.816 51.8644L161.816 51.8641C161.802 51.8278 161.786 51.7898 161.792 51.7552C161.92 50.974 161.551 50.3715 161.14 49.7542C159.84 47.8056 158.567 45.8394 157.299 43.8704C157.134 43.6153 156.964 43.5159 156.659 43.5179C155.124 43.5281 153.588 43.5269 152.052 43.5257C151.554 43.5253 151.056 43.5249 150.557 43.5249H150.083V44.0606C150.083 44.6707 150.083 45.2809 150.082 45.891C150.081 47.7586 150.08 49.6263 150.091 51.4939C150.093 51.8684 149.979 51.9699 149.612 51.9663C148.382 51.9543 147.152 51.9556 145.922 51.957C145.4 51.9575 144.878 51.9581 144.357 51.9577C144.259 51.9575 144.161 51.9511 144.056 51.9443C144.015 51.9416 143.974 51.9388 143.93 51.9364L143.901 51.9347V29.2686C143.933 29.2669 143.963 29.2651 143.994 29.2632L144.058 29.2591L144.058 29.2591C144.163 29.2523 144.26 29.246 144.358 29.2459C144.875 29.2455 145.392 29.2461 145.909 29.2466H145.91C147.144 29.248 148.379 29.2494 149.613 29.2372C149.981 29.2336 150.093 29.3378 150.091 29.7108C150.08 31.5803 150.081 33.4499 150.082 35.3196C150.083 35.9277 150.083 36.5359 150.083 37.144V37.7154ZM86.2318 29.7802L86.2327 29.7786C86.3424 29.6073 86.4557 29.4303 86.5745 29.245H86.238L83.5226 29.2452C79.5137 29.2457 75.5048 29.2462 71.4959 29.2374C71.1927 29.2367 71.0515 29.3684 70.9043 29.5976C70.0388 30.9447 69.1715 32.2906 68.3043 33.6365C67.1079 35.4931 65.9115 37.3497 64.7201 39.2093C64.6011 39.395 64.5281 39.6456 64.5274 39.8663C64.5172 43.3139 64.5184 46.7616 64.5196 50.2092L64.52 51.483C64.52 51.5793 64.5261 51.6756 64.5326 51.7775L64.5326 51.7778C64.5357 51.8272 64.539 51.878 64.5416 51.9307H87.19V46.0192H70.7533C70.7533 45.7589 70.753 45.5014 70.7526 45.2459V45.2444C70.7515 44.4201 70.7504 43.618 70.7615 42.816C70.7632 42.6883 70.8518 42.5526 70.9284 42.4352L70.938 42.4204C71.4575 41.624 71.978 40.8283 72.4985 40.0325C73.4631 38.5578 74.4277 37.0831 75.3859 35.6043C75.5531 35.3461 75.7394 35.2622 76.0371 35.2639C76.9876 35.2691 77.9381 35.2691 78.8886 35.2691C79.9868 35.2691 81.085 35.269 82.1832 35.277C82.5311 35.2795 82.7466 35.1853 82.9392 34.88C83.5484 33.9145 84.1718 32.9579 84.7951 32.0013L84.7971 31.9982C85.0554 31.6018 85.3137 31.2054 85.571 30.8084C85.7867 30.4757 86.0004 30.1417 86.23 29.783L86.2318 29.7802ZM103.806 51.9267H97.4478V35.4007H87.6206L87.7972 35.1169C87.8984 34.9544 87.9875 34.8111 88.077 34.668C88.3387 34.2493 88.6006 33.8308 88.8625 33.4122C89.6624 32.1339 90.4623 30.8557 91.2571 29.5742C91.3932 29.3548 91.5357 29.2384 91.8172 29.2384C97.645 29.2384 103.473 29.2321 109.301 29.2257L109.306 29.2257L113.597 29.2212C113.652 29.2211 113.706 29.2251 113.778 29.2305C113.818 29.2334 113.864 29.2368 113.918 29.2401L113.847 29.3515C113.707 29.5721 113.586 29.7617 113.465 29.9512C113.206 30.3561 112.948 30.7608 112.689 31.1655L112.674 31.1889L112.674 31.1892C111.86 32.4628 111.046 33.7364 110.24 35.0151C110.088 35.2559 109.927 35.3518 109.636 35.3519C108.242 35.3522 106.847 35.3664 105.453 35.3806H105.453C105.08 35.3844 104.708 35.3882 104.336 35.3918C104.23 35.3928 104.123 35.3985 104.003 35.405L104.003 35.405C103.976 35.4065 103.948 35.408 103.919 35.4095C103.883 35.4114 103.845 35.4133 103.806 35.415V51.9267ZM104.023 5.97732H104.614V22.7634H110.965V5.97732H111.541C111.96 5.97732 112.379 5.97696 112.798 5.9766C114.041 5.97554 115.285 5.97448 116.528 5.98276C116.805 5.98463 116.985 5.91873 117.142 5.66929C117.93 4.42259 118.726 3.18131 119.522 1.94002C119.854 1.42234 120.186 0.904651 120.517 0.38657C120.562 0.316532 120.6 0.242252 120.643 0.160374C120.664 0.119441 120.686 0.0766085 120.71 0.0314578H94.7088C94.7441 0.0908285 94.7759 0.145903 94.806 0.197816C94.8653 0.300456 94.9175 0.390739 94.9751 0.477444C95.3061 0.975975 95.6378 1.47406 95.9695 1.97215C96.7717 3.17686 97.5739 4.38158 98.3665 5.5926C98.5491 5.87155 98.7385 5.9898 99.081 5.98588C100.296 5.9718 101.512 5.97383 102.727 5.97587C103.159 5.97659 103.591 5.97732 104.023 5.97732Z" fill="white"/>
</svg>
