<svg width="14" height="14" viewBox="0 0 14 14" fill="none" xmlns="http://www.w3.org/2000/svg">
<path fill-rule="evenodd" clip-rule="evenodd" d="M2.81461 0.200674C5.59738 -0.0668913 8.37969 -0.0668913 11.1625 0.200674C12.4393 0.335129 13.6535 1.54926 13.7875 2.82568C14.0555 5.60845 14.0555 8.39122 13.7875 11.174C13.6535 12.4509 12.4393 13.665 11.1625 13.799C8.37969 14.0666 5.59738 14.0666 2.81461 13.799C1.53773 13.665 0.323607 12.4509 0.189153 11.174C0.0874257 10.116 0.0243748 9.05799 0 8H6.93458L3.92149 11H6.92248L10.918 6.99283L6.92248 3H3.92149L6.93458 5.99377H0.000136074C0.0246089 4.93774 0.0876144 3.88171 0.189153 2.82568C0.323607 1.54926 1.53773 0.335129 2.81461 0.200674Z" fill="#CF1235"/>
</svg>
