<?xml version="1.0" encoding="UTF-8"?>
<svg width="20px" height="16px" viewBox="0 0 20 16" version="1.1" xmlns="http://www.w3.org/2000/svg" xmlns:xlink="http://www.w3.org/1999/xlink">
    <title>Shape</title>
    <g id="Порт-восток" stroke="none" stroke-width="1" fill="none" fill-rule="evenodd">
        <g id="1-контакты-copy" transform="translate(-160.000000, -367.000000)" fill="#36C3FC">
            <g id="Group-3" transform="translate(160.000000, 314.000000)">
                <path d="M20,55 L18,53 L16,55 L14,53 L12,55 L10,53 L8,55 L6,53 L4,55 L2,53 L-2.72848411e-12,55 L2,57 L-2.72848411e-12,59 L2,61 L-2.72848411e-12,63 L2,65 L-2.72848411e-12,67 L2,69 L4,67 L6,69 L8,67 L10,69 L12,67 L14,69 L16,67 L18,69 L20,67 L18,65 L20,63 L18,61 L20,59 L18,57 L20,55 Z M10,64 L4,59 L4,57 L10,61 L16,57 L16,59 L10,64 Z" id="Shape"></path>
            </g>
        </g>
    </g>
</svg>