<svg width="70" height="70" viewBox="0 0 70 70" fill="none" xmlns="http://www.w3.org/2000/svg">
<path fill-rule="evenodd" clip-rule="evenodd" d="M35 0C54.33 0 70 15.67 70 35C70 54.33 54.33 70 35 70C15.67 70 0 54.33 0 35C0 15.67 15.67 0 35 0ZM35.0331 2.15436C16.8747 2.15436 2.15436 16.8747 2.15436 35.0331C2.15436 53.1916 16.8747 67.9119 35.0331 67.9119C53.1916 67.9119 67.9119 53.1916 67.9119 35.0331C67.9119 16.8747 53.1916 2.15436 35.0331 2.15436ZM48.5414 32.9381H16.9697V35.1989H48.5414L38.3846 45.3409H41.7664L53.0303 34.0639L41.7664 22.803H38.3846L48.5414 32.9381Z" fill="white"/>
</svg>
