<svg aria-hidden="true" xmlns="http://www.w3.org/2000/svg" xmlns:xlink="http://www.w3.org/1999/xlink"><symbol viewBox="0 0 23 14" id="arrow__pagging_left" xmlns="http://www.w3.org/2000/svg">
<path fill-rule="evenodd" clip-rule="evenodd" d="M22.6211 6.29564L3.00947 6.29564L9.31864 0L7.21794 0L0.221094 6.99498L7.21794 14H9.31864L3.00947 7.7L22.6211 7.7V6.29564Z" fill-opacity="0.55242"/>
</symbol><symbol viewBox="0 0 23 14" id="arrow__pagging_right" xmlns="http://www.w3.org/2000/svg">
<path fill-rule="evenodd" clip-rule="evenodd" d="M0.378906 6.29564L19.9905 6.29564L13.6814 0L15.7821 0L22.7789 6.99498L15.7821 14H13.6814L19.9905 7.7L0.378906 7.7L0.378906 6.29564Z" fill-opacity="0.55242"/>
</symbol><symbol viewBox="0 0 14 20" id="icon-map" xmlns="http://www.w3.org/2000/svg">
<path fill-rule="evenodd" clip-rule="evenodd" d="M0 7C0 12.2 7 20 7 20C7 20 14 12.2 14 7C14 3.1 10.9 0 7 0C3.1 0 0 3.1 0 7ZM4.5 7C4.5 5.6 5.6 4.5 7 4.5C8.4 4.5 9.5 5.6 9.5 7C9.5 8.4 8.4 9.5 7 9.5C5.6 9.5 4.5 8.4 4.5 7Z"/>
</symbol><symbol viewBox="0 0 16 16" id="input_clear" xmlns="http://www.w3.org/2000/svg">
<path fill-rule="evenodd" clip-rule="evenodd" d="M8 0C3.6 0 0 3.6 0 8C0 12.4 3.6 16 8 16C12.4 16 16 12.4 16 8C16 3.6 12.4 0 8 0ZM12 11.0494L10.88 12.2353L8 9.18588L5.12 12.2353L4 11.0494L6.88 8L4 4.95059L5.12 3.76471L8 6.81412L10.88 3.76471L12 4.95059L9.12 8L12 11.0494Z"/>
</symbol><symbol viewBox="0 0 255 71" id="logo3S" xmlns="http://www.w3.org/2000/svg">
    <title>Combined Shape</title>
    <g id="e&#x41F;&#x43E;&#x440;&#x442;-&#x432;&#x43E;&#x441;&#x442;&#x43E;&#x43A;" stroke-width="1" fill-rule="evenodd">
        <g id="e1-&#x43A;&#x430;&#x442;&#x430;&#x43B;&#x43E;&#x433;-&#x442;&#x435;&#x445;&#x43D;&#x438;&#x43A;&#x438;-copy" transform="translate(-31.000000, -133.000000)">
            <path d="M31,170.04417 L39.607339,170.04417 C39.6731255,170.72565 39.7192322,171.371144 39.8013247,172.011578 C40.081901,174.205021 41.2851741,175.628707 43.4280125,176.19492 C45.3037691,176.690848 47.2076396,176.703219 49.1036383,176.3085 C51.4387754,175.82213 52.841657,174.356836 53.1537208,172.026197 C53.3420837,170.621629 53.4309234,169.142277 53.2015144,167.755702 C52.7516926,165.032593 50.4874024,163.25636 47.4685363,163.063499 C45.7221033,162.951606 43.966674,162.97241 42.2151806,162.935862 C41.9486612,162.930239 41.6815795,162.934737 41.3672666,162.934737 L41.3672666,155.404159 C42.3512517,155.404159 43.3121834,155.436771 44.2703037,155.397412 C45.8823523,155.330501 47.5140807,155.351867 49.0980155,155.092095 C51.078918,154.766537 52.1005756,153.588566 52.3536004,151.585172 C52.470554,150.661913 52.4784259,149.699295 52.3614723,148.776598 C52.1050739,146.758023 50.9833309,145.581739 49.0108626,145.145974 C47.2992908,144.767562 45.5736622,144.766437 43.8626527,145.150472 C41.8395794,145.604792 40.87921,146.722037 40.676228,148.783345 C40.6610465,148.938534 40.6475518,149.093722 40.6301212,149.287146 L32.4135648,149.287146 C32.442241,146.221048 33.0028313,143.367492 35.2598119,141.081835 C37.4122089,138.902448 40.0655949,137.718855 43.0512867,137.289837 C46.8590278,136.74218 50.6352813,136.917048 54.279962,138.252456 C58.4683647,139.786348 60.7703275,142.873812 61.2252097,147.253951 C61.408512,149.023438 61.3950174,150.851401 61.1729179,152.615264 C60.7804484,155.721283 59.726741,157.133161 56.8962377,159.049402 C57.7255965,159.670156 58.6061226,160.245366 59.3871256,160.933031 C61.1262489,162.464111 62.0641272,164.459071 62.436917,166.711553 C62.9260981,169.671942 62.7860911,172.621649 62.0253301,175.521874 C61.0014234,179.422953 58.5375248,182.073528 54.7292215,183.345961 C50.1803991,184.865234 45.5061889,185.112074 40.8449111,183.977398 C36.3062097,182.873086 31.8878357,179.100206 31.3143129,173.118139 C31.2181635,172.117848 31.1102063,171.119244 31,170.04417 M114.702661,148.174512 C111.186742,149.614503 107.725364,151.031442 104.221252,152.466936 C103.478484,150.837456 102.461887,149.458753 101.126479,148.326326 C98.3392707,145.963075 95.0392659,145.059496 91.4631831,144.974592 C89.460914,144.926799 87.4648301,144.963347 85.5159774,145.535182 C82.5752677,146.397716 80.9300447,148.45565 80.796785,151.520623 C80.766422,152.213911 80.7669843,152.91732 80.84739,153.604985 C81.1122225,155.86815 82.2733249,157.560604 84.4167255,158.345543 C86.5590015,159.130482 88.7760604,159.715251 90.9723151,160.345563 C95.6555217,161.689406 100.295995,163.153013 104.716056,165.227254 C107.043321,166.319758 109.221583,167.654042 111.092279,169.445457 C113.511758,171.762601 114.950625,174.613347 115.563507,177.868932 C116.277037,181.655306 116.283785,185.457424 115.489849,189.239301 C114.307943,194.866571 110.991632,198.753593 105.751208,201.045997 C102.548478,202.447192 99.1641313,203.119675 95.7078135,203.451419 C92.0788766,203.80003 88.4431923,203.882123 84.8114441,203.467162 C79.3224942,202.840786 74.2254516,201.23942 70.0516681,197.417622 C66.6285247,194.282927 64.6723624,190.340802 63.8368185,185.825154 C63.5809824,184.442514 63.4904558,183.029512 63.3195235,181.595705 L77.2150794,181.595705 C77.2651221,182.216459 77.2814281,182.770302 77.3590223,183.315148 C77.906118,187.149879 80.159725,189.520439 83.7796654,190.667485 C86.6326598,191.571626 89.5722449,191.589057 92.5230755,191.401256 C94.2987469,191.288801 96.0513648,191.066702 97.7331359,190.435827 C100.247077,189.49345 101.586421,187.649743 101.824265,185.022784 C101.916478,184.002251 101.902983,182.955291 101.787717,181.937569 C101.552685,179.870076 100.439938,178.319878 98.7216192,177.175644 C96.5456065,175.726656 94.1086972,174.871994 91.6425495,174.10561 C87.9152141,172.947319 84.1547043,171.895299 80.4358031,170.71283 C78.1422744,169.982994 75.9696354,168.954027 73.9864838,167.561266 C71.1987136,165.60398 69.2880957,163.003448 68.3732708,159.730432 C67.0519194,155.001119 66.9687024,150.238069 68.4216266,145.527873 C70.1815542,139.823009 73.9752383,135.980406 79.7340811,134.446514 C86.7962825,132.565697 93.9546332,132.448743 101.026956,134.510614 C104.609786,135.555325 107.796211,137.433893 110.446223,140.074909 C112.677901,142.299277 113.855309,145.135403 114.702661,148.174512 M246.648873,149.530218 C246.444204,148.644069 246.335122,147.719686 246.010688,146.877957 C245.542311,145.662313 244.285622,145.042684 242.872057,145.154015 C241.688463,145.247353 240.855731,145.980562 240.508244,147.301351 C240.09497,148.873478 240.131518,150.460225 240.510493,152.030102 C240.839987,153.39756 241.585004,153.964898 243.057046,154.067233 C244.540333,154.170692 245.596852,153.640464 246.026994,152.389398 C246.336247,151.491441 246.441392,150.5232 246.648873,149.530218 M246.456012,143.924315 L246.456012,142.49838 L249.932009,142.49838 C249.94213,142.662565 249.960123,142.813817 249.960123,142.96507 C249.961248,147.519515 249.982052,152.07396 249.943255,156.627843 C249.935383,157.535921 249.773447,158.460304 249.555283,159.345328 C249.080159,161.276751 247.805477,162.404116 245.853813,162.805582 C243.876846,163.211546 242.002214,163.043425 240.128707,162.214067 C240.266464,161.717014 240.403098,161.206466 240.54929,160.69873 C240.690421,160.207862 240.841112,159.720367 240.985055,159.23962 C241.682278,159.389748 242.329459,159.586545 242.99126,159.660204 C245.371941,159.923912 246.442517,158.914624 246.373357,156.518761 C246.36436,156.210071 246.326688,155.902505 246.301948,155.588755 C246.234474,155.603374 246.175435,155.597751 246.15688,155.622491 C244.889507,157.308761 243.116647,157.470134 241.238079,157.197992 C238.910814,156.860626 237.50737,155.431879 236.899549,153.228315 C236.242247,150.848196 236.227628,148.431528 236.851193,146.0441 C237.550103,143.366536 239.425298,141.974337 242.199573,141.900679 C243.888654,141.855135 245.367443,142.214992 246.456012,143.924315 M172.582068,157.219527 L168.810875,157.219527 C168.79963,156.967627 168.780512,156.748339 168.780512,156.529613 C168.778825,150.489632 168.786697,144.44965 168.76644,138.409669 C168.764768,137.852452 168.899715,137.624168 169.480547,137.547698 C170.433045,137.422872 171.370361,137.188403 172.399328,136.983172 L172.399328,143.792348 C172.564075,143.670896 172.637734,143.633786 172.688901,143.576434 C174.223355,141.853616 176.767659,141.344756 178.891943,142.341673 C180.349927,143.025964 181.055585,144.244981 181.282745,145.776062 C181.364838,146.32878 181.391265,146.893869 181.392951,147.453335 C181.403072,150.68418 181.398012,153.915024 181.398012,157.20041 L177.68136,157.20041 L177.68136,156.482382 C177.68136,153.877352 177.68136,151.272884 177.680798,148.668416 C177.680235,148.421576 177.676299,148.174736 177.669552,147.927897 C177.609388,145.782809 176.535439,145.094582 174.404971,145.42239 C173.543562,145.554525 172.994217,146.134233 172.815975,146.969214 C172.672595,147.643947 172.599499,148.345106 172.592189,149.035583 C172.566324,151.482613 172.582068,153.930206 172.582068,156.377798 C172.582068,156.643193 172.582068,156.908588 172.582068,157.219527 M149.064038,148.4719 C149.14107,146.195802 147.894501,144.902564 145.718489,144.971725 C143.749394,145.034137 142.502826,146.467382 142.709744,148.4719 L149.064038,148.4719 Z M152.863345,150.972347 L142.749103,150.972347 C142.383061,152.739584 143.378291,154.419106 145.021265,154.746351 C146.554595,155.05223 148.027761,154.955518 149.129824,153.594807 C149.226536,153.475605 149.524543,153.401946 149.66961,153.458736 C150.586122,153.816907 151.486328,154.218373 152.567587,154.680565 C152.091338,155.26702 151.731481,155.865845 151.22993,156.301047 C148.688437,158.507985 143.505928,158.393843 141.030784,156.122243 C140.019247,155.193924 139.409177,154.034508 139.117917,152.715406 C138.645604,150.574817 138.692835,148.437039 139.330458,146.332998 C140.031055,144.021476 141.577317,142.612409 143.960248,142.154716 C145.365379,141.884823 146.777257,141.871328 148.167768,142.22725 C150.709823,142.878367 152.327495,144.873326 152.676669,147.817409 C152.796996,148.831195 152.800932,149.859038 152.863345,150.972347 L152.863345,150.972347 Z M269.380277,148.457056 C269.301558,147.094096 269.026042,145.885762 267.755858,145.274005 C266.49692,144.66787 265.197497,144.760083 264.058324,145.590567 C263.115947,146.277107 262.900033,147.320131 262.91184,148.457056 L269.380277,148.457056 Z M272.999093,151.000236 L262.954574,151.000236 C262.775769,152.567864 263.452189,153.979742 264.607106,154.518966 C266.094329,155.213941 268.211303,154.913122 269.167174,153.780134 C269.543337,153.334248 269.82054,153.331999 270.28723,153.559159 C271.071045,153.940945 271.886346,154.258069 272.717954,154.615115 C272.0674,156.052296 270.964212,156.91989 269.543337,157.382081 C267.614164,158.010145 265.654629,158.030949 263.710836,157.445619 C261.402126,156.74952 259.990811,155.158275 259.420661,152.856312 C258.882562,150.683111 258.933729,148.48517 259.571352,146.338958 C260.247209,144.067358 261.756361,142.634113 264.119612,142.152242 C265.457269,141.879537 266.792115,141.849737 268.12921,142.138185 C270.309721,142.608249 271.762083,143.908796 272.499791,146.002716 C273.060381,147.59396 273.150346,149.233561 272.999093,151.000236 L272.999093,151.000236 Z M224.5642,150.062976 C224.809915,151.086882 224.9741,152.319394 225.411551,153.44676 C225.894547,154.689392 227.073643,154.895748 228.289848,154.837833 C229.418338,154.783855 230.242075,154.255877 230.574943,153.172368 C231.24349,150.996356 231.276665,148.792229 230.546266,146.626338 C230.130744,145.394951 229.208047,144.879342 227.801792,144.910268 C226.364049,144.941755 225.505452,145.462986 225.148406,146.74048 C224.867829,147.744707 224.777303,148.801788 224.5642,150.062976 M220.859355,149.645204 C220.966188,148.736002 221.019604,147.632251 221.23833,146.561676 C221.736508,144.12308 223.198428,142.595935 225.694939,142.118561 C227.125372,141.845295 228.552994,141.839672 229.980616,142.097195 C232.562592,142.563885 234.050378,144.155129 234.552491,146.678067 C234.963516,148.743873 234.975886,150.827673 234.58173,152.900226 C234.034072,155.777961 232.501304,157.282052 229.612886,157.668899 C228.554118,157.811155 227.448681,157.865696 226.393849,157.73075 C223.233289,157.326472 221.519469,155.550239 221.097198,152.384618 C220.984743,151.541765 220.947633,150.68879 220.859355,149.645204 M209.001323,149.86601 C208.812398,148.830858 208.706128,147.729919 208.396875,146.689144 C208.0179,145.413899 207.073837,144.881985 205.634407,144.910099 C204.194416,144.938775 203.406665,145.467878 202.974836,146.741436 C202.435613,148.332118 202.496901,149.971156 202.683577,151.602884 C202.751612,152.1944 202.92142,152.797161 203.163761,153.342008 C203.732224,154.62175 204.856778,154.9057 206.132023,154.838227 C207.335296,154.77469 208.126982,154.237153 208.451416,153.042876 C208.725245,152.035838 208.816334,150.978757 209.001323,149.86601 M212.766331,150.372622 C212.613954,151.407212 212.521741,152.392321 212.316509,153.353253 C211.814958,155.705258 210.342354,157.18461 207.985851,157.573143 C206.654378,157.792431 205.24981,157.811549 203.90653,157.66367 C201.284631,157.374097 199.706319,155.777792 199.112554,153.244734 C198.604256,151.07603 198.598633,148.873028 199.045643,146.698703 C199.645031,143.785545 201.267763,142.329809 204.261889,142.033489 C205.389817,141.921596 206.558791,141.930592 207.678847,142.092528 C210.373842,142.482186 211.999385,144.170704 212.434588,146.939357 C212.615079,148.087527 212.66231,149.256502 212.766331,150.372622 M188.052337,157.243818 L184.310945,157.243818 L184.310945,142.526212 L187.892088,142.526212 L187.892088,143.983073 C189.199945,142.055586 190.957624,141.746896 192.876676,141.993736 C195.120162,142.282184 196.614694,143.573173 196.718153,145.823968 C196.892459,149.603033 196.765947,153.396155 196.765947,157.229761 L193.167373,157.229761 L193.167373,156.51848 C193.167373,153.915137 193.174683,151.311231 193.16175,148.707888 C193.158939,148.172038 193.12464,147.628316 193.025117,147.103149 C192.816512,146.00221 192.133907,145.452865 191.005417,145.400573 C189.495141,145.330289 188.630358,145.775612 188.328416,146.895668 C188.155234,147.537227 188.070893,148.220393 188.064145,148.88613 C188.036031,151.645224 188.052337,154.40488 188.052337,157.243818 M273.838742,152.800422 C274.837346,152.800422 275.799402,152.783554 276.759209,152.817853 C276.911024,152.823475 277.118504,153.03208 277.192163,153.195141 C277.859586,154.681802 280.419071,155.339666 281.72749,154.344998 C282.599582,153.682635 282.427525,152.159426 281.367071,151.736594 C280.56189,151.415533 279.680801,151.289583 278.841884,151.048929 C278.025457,150.814459 277.185978,150.618224 276.415658,150.273548 C275.121296,149.694403 274.421823,148.637322 274.348727,147.209138 C274.320051,146.650797 274.304869,146.084584 274.366158,145.531303 C274.530905,144.050827 275.279296,142.94033 276.689487,142.410102 C278.786781,141.620665 280.920623,141.629661 283.004984,142.460145 C284.229624,142.948201 285.036492,143.887204 285.470007,145.198435 C284.520883,145.635324 283.607183,146.055345 282.644564,146.49842 C282.19418,145.578534 281.543063,144.90099 280.478673,144.809339 C280.058089,144.773353 279.626823,144.803716 279.205115,144.848698 C278.580987,144.915609 278.082247,145.161324 277.960796,145.865295 C277.829785,146.621558 278.103052,147.349145 278.788468,147.599921 C279.561036,147.882184 280.387584,148.018817 281.19164,148.216176 C281.604914,148.317386 282.029995,148.38261 282.433148,148.514745 C285.598206,149.551585 286.527088,151.926081 285.729779,155.006798 C285.466071,156.025644 284.772221,156.747608 283.806229,157.126583 C281.509327,158.028475 279.160133,158.151052 276.835679,157.273337 C274.913815,156.548 273.743717,154.763894 273.838742,152.800422 M164.563152,152.631402 C165.488098,152.96427 166.559236,153.349992 167.65905,153.745835 C167.079905,155.636773 165.952539,156.929448 164.071722,157.478231 C162.538392,157.925804 160.967952,157.983156 159.400323,157.721135 C156.654724,157.262316 155.105088,155.523755 154.501764,152.905231 C154.000775,150.731467 154.037886,148.536899 154.575423,146.366509 C155.201799,143.834575 156.764368,142.246142 159.410444,142.015046 C160.6885,141.903153 162.028407,141.94926 163.280036,142.210719 C165.3897,142.650982 166.598595,144.11965 167.119826,146.256303 C166.122347,146.569491 165.146796,146.875932 164.110519,147.200929 C163.990192,146.974893 163.879423,146.764602 163.766405,146.555434 C163.318833,145.728887 162.641289,145.22846 161.697788,145.119379 C159.541455,144.869165 158.353925,145.735634 158.147007,147.962814 C158.015434,149.377504 158.050296,150.842236 158.263961,152.245679 C158.613697,154.54708 161.186678,155.624403 163.141715,154.328354 C163.697245,153.960063 164.040797,153.272398 164.563152,152.631402 M130.005934,145.557449 L127.965993,145.557449 C128.126804,144.530731 128.27412,143.586667 128.433245,142.571195 L130.018304,142.571195 L130.018304,138.548101 C131.251378,138.301262 132.442843,138.063418 133.731583,137.805333 L133.731583,142.574006 L137.559003,142.574006 C137.440925,143.587229 137.330719,144.532417 137.213203,145.543392 L133.833355,145.543392 C133.791746,145.692395 133.747889,145.776737 133.747889,145.861078 C133.751262,148.104002 133.697284,150.349737 133.786686,152.589849 C133.85922,154.413314 135.023133,155.115036 136.740328,154.517898 C136.865716,154.47404 136.991104,154.427933 137.205331,154.351464 C137.630413,155.257855 138.053807,156.160309 138.532868,157.181967 C138.067302,157.33097 137.642783,157.554195 137.20252,157.590743 C136.000933,157.690828 134.779105,157.854451 133.591013,157.734123 C131.184467,157.490657 130.095336,156.100146 130.072283,153.484432 C130.050354,151.016598 130.053728,148.548763 130.043044,146.080929 C130.042482,145.929114 130.02224,145.777861 130.005934,145.557449 M218.460006,136.881174 L218.460006,157.226612 L214.859183,157.226612 C214.846251,156.983146 214.823197,156.745865 214.823197,156.508022 C214.820948,150.45061 214.831069,144.392635 214.806299,138.335223 C214.803518,137.729651 214.99919,137.525544 215.571026,137.442889 C216.519025,137.305131 217.454092,137.081907 218.460006,136.881174 M256.622039,157.229873 L253.047081,157.229873 C253.027401,157.017895 252.994789,156.826158 252.994227,156.633859 C252.975109,152.258218 252.971736,147.882577 252.92844,143.507499 C252.922818,142.928915 253.102184,142.738866 253.656589,142.657898 C254.627642,142.515642 255.5852,142.28061 256.622039,142.069194 L256.622039,157.229873 Z M254.663403,136.903147 C255.90716,136.907095 256.874839,137.806739 256.877656,138.963343 C256.880462,140.108139 255.897601,141.044893 254.679147,141.05895 C253.448884,141.073007 252.4008,140.092958 252.418792,138.94535 C252.436785,137.799992 253.426955,136.899224 254.663403,136.903147" id="eCombined-Shape"/>
        </g>
    </g>
</symbol><symbol viewBox="0 0 77 14" id="logo_salt" xmlns="http://www.w3.org/2000/svg">
<path fill-rule="evenodd" clip-rule="evenodd" d="M32.7048 10.9764C34.2224 11.0205 35.7244 10.6559 37.0571 9.91985C37.1285 9.8802 37.2046 9.85222 37.3061 9.80557C37.673 10.5339 37.8597 11.3415 37.8501 12.159C37.8616 13.0733 37.8501 13.0919 36.9902 13.3741C35.5422 13.8278 34.028 14.0267 32.5134 13.9619C30.8998 13.9293 29.376 13.619 27.9883 12.77C26.3377 11.7718 25.4156 10.2767 25.1298 8.39213C24.8566 6.89013 25.0167 5.34034 25.5908 3.92792C26.453 1.89406 28.0528 0.760515 30.1391 0.289369C32.6121 -0.288017 35.2057 0.00401796 37.4928 1.11737C37.6103 1.17102 37.7763 1.30396 37.7763 1.39959C37.8041 2.50724 37.5391 3.60231 37.0087 4.57166C36.2249 4.17282 35.4849 3.74832 34.7034 3.40546C33.7746 2.99609 32.7409 2.89722 31.7527 3.12324C30.1321 3.49409 29.1593 4.67895 29.104 6.45157C29.0804 7.09895 29.1455 7.74653 29.2976 8.3758C29.7057 9.9665 31.0266 10.9414 32.7071 10.9858L32.7048 10.9764ZM73.0235 8.54374C72.9516 8.3518 72.8262 8.18509 72.6625 8.06379C72.4989 7.9425 72.3039 7.87183 72.1014 7.86034C71.0733 7.82536 70.0428 7.86034 68.9939 7.86034V10.9088C70.052 10.9088 71.0848 10.9508 72.1106 10.8831C72.2748 10.8493 72.4307 10.7831 72.5696 10.6882C72.7084 10.5934 72.8274 10.4718 72.9198 10.3304C73.0905 10.07 73.1895 9.7682 73.2065 9.45619C73.2235 9.14418 73.158 8.83322 73.0166 8.5554L73.0235 8.54374ZM76.4122 11.4966C75.7206 12.9846 74.4435 13.6774 72.8644 13.7123C70.4808 13.7683 68.0972 13.7287 65.7182 13.731C65.3862 13.731 65.1903 13.5771 65.1903 13.2459C65.1903 10.7362 65.1903 8.22575 65.1903 5.71454C65.1672 5.49762 65.1557 5.29237 65.1534 5.10578C65.1547 4.77476 65.1246 4.44438 65.0635 4.11917C65.0362 3.85923 64.9121 3.61955 64.7164 3.44886C64.5207 3.27816 64.2681 3.18926 64.01 3.20021C63.3184 3.17688 62.6061 3.20021 61.873 3.20021C61.873 3.89993 61.8846 4.59965 61.873 5.29937C61.8431 6.99969 61.7393 8.69301 61.2667 10.335C60.8818 11.6738 60.2547 12.8633 58.89 13.4325C58.37 13.6436 57.8196 13.7681 57.2602 13.801C56.4419 13.8476 55.6166 13.7776 54.7798 13.7567C54.5266 12.7605 54.5393 11.7141 54.8167 10.7245C55.1822 10.7433 55.5484 10.7433 55.914 10.7245C56.336 10.7018 56.7413 10.5504 57.0766 10.2902C57.412 10.0301 57.6616 9.67325 57.7928 9.26678C58.0676 8.49036 58.2472 7.68276 58.3276 6.86208C58.4175 5.7122 58.3506 4.55067 58.3506 3.2935H55.9301C55.8333 2.48183 55.7641 2.32322 55.7641 1.84975C55.732 1.32925 55.7881 0.807033 55.9301 0.305696H56.428C59.1943 0.305696 61.9606 0.284704 64.7384 0.31969C65.4236 0.317351 66.1045 0.430059 66.7532 0.653224C68.0972 1.14303 68.6551 2.2859 68.8717 3.62004C68.9328 4.02918 68.9628 4.44244 68.9617 4.85621V4.98916C68.9706 5.00423 68.9769 5.02083 68.9801 5.03814C70.0636 5.03814 71.0963 5.02181 72.1268 5.03814C72.7177 5.03636 73.3078 5.0863 73.8903 5.18741C75.3748 5.49062 76.32 6.40259 76.6865 7.886C77.0201 9.08074 76.9253 10.3563 76.4191 11.4872L76.4122 11.4966ZM49.5907 6.15536C49.4708 4.54367 48.6686 3.16289 46.5939 3.0556C45.0401 2.9763 43.846 3.53607 43.3389 5.24106C43.2026 5.81928 43.1253 6.41015 43.1084 7.00435C43.1099 7.29195 43.1269 7.57926 43.1591 7.86501C43.3343 9.41372 43.9797 10.7339 45.8585 10.9484C47.5068 11.135 49.0328 10.5706 49.4731 8.61604C49.6326 7.80707 49.6738 6.97877 49.5953 6.15769L49.5907 6.15536ZM51.9905 11.8324C51.0446 12.8584 49.7915 13.5412 48.4242 13.7753C46.2781 14.1881 44.1757 14.0902 42.2208 12.9893C40.425 11.9747 39.4937 10.3583 39.1848 8.35948C38.9355 6.92374 39.0815 5.44627 39.6067 4.08885C40.3836 2.15063 41.822 0.923782 43.8138 0.384997C45.8746 -0.170115 47.9355 -0.118801 49.9134 0.74652C52.0112 1.66082 53.173 3.33315 53.5672 5.5606C53.6502 6.02708 53.6641 6.52154 53.7102 6.99969C53.6802 8.81196 53.233 10.468 51.9858 11.8371"/>
<rect y="5" width="20" height="0.999965"/>
<rect y="8" width="20" height="0.999965"/>
</symbol></svg>