<svg width="26" height="16" viewBox="0 0 26 16" fill="none" xmlns="http://www.w3.org/2000/svg">
<path d="M24.9798 0.666316H20.7607C20.4098 0.666314 20.0873 0.864635 19.9214 1.18248C19.9214 1.18248 18.2387 4.36851 17.6981 5.44162C16.244 8.32843 15.3024 7.42216 15.3024 6.08237V1.46274C15.3024 0.658873 14.6685 0.00720955 13.8866 0.00720955H10.7144C9.83601 -0.0599313 8.98647 0.34534 8.46921 1.07826C8.46921 1.07826 10.08 0.810503 10.08 3.04184C10.08 3.59515 10.1077 5.18688 10.133 6.52193C10.1427 6.92489 9.90699 7.29134 9.54247 7.4398C9.17795 7.58826 8.76205 7.48722 8.50073 7.18672C7.20229 5.33013 6.12675 3.31909 5.29748 1.19729C5.15205 0.873176 4.83635 0.665797 4.48915 0.666316C3.57416 0.666316 1.74317 0.666316 0.655805 0.666316C0.441766 0.664819 0.240671 0.771525 0.117869 0.951759C-0.00493295 1.13199 -0.0337673 1.36275 0.0407361 1.56904C1.20472 4.85147 6.21882 15.1667 11.9419 15.1667H14.3508C14.8763 15.1667 15.3024 14.7286 15.3024 14.1883V12.6929C15.3024 12.3095 15.524 11.9628 15.8662 11.8106C16.2085 11.6584 16.606 11.7298 16.8778 11.9923L19.7611 14.7773C20.02 15.0274 20.3619 15.1667 20.7172 15.1667H24.5034C26.3295 15.1667 26.3295 13.864 25.3338 12.8559C24.6332 12.1465 22.1048 9.40664 22.1048 9.40664C21.6574 8.93016 21.6148 8.18951 22.0043 7.66208C22.8216 6.55641 24.1583 4.74652 24.7252 3.97117C25.5001 2.91141 26.9025 0.666316 24.9798 0.666316Z" fill="#0577FF"/>
</svg>
