<svg width="56" height="70" viewBox="0 0 56 70" fill="none" xmlns="http://www.w3.org/2000/svg">
<path fill-rule="evenodd" clip-rule="evenodd" d="M52 10.6496H49.3333V9.31838C49.3333 7.11658 47.5387 5.32479 45.3333 5.32479H29.1987C28.5787 2.29099 25.8867 0 22.6667 0C19.4467 0 16.7547 2.29099 16.1347 5.32479H4C1.79467 5.32479 0 7.11658 0 9.31838V57.2415C0 59.4432 1.79467 61.235 4 61.235H5.33333V65.2286C5.33333 67.4304 7.128 69.2222 9.33333 69.2222H52C54.2053 69.2222 56 67.4304 56 65.2286V14.6432C56 12.4414 54.2053 10.6496 52 10.6496ZM4 58.5726C3.264 58.5726 2.66667 57.9763 2.66667 57.2415V9.31838C2.66667 8.58356 3.264 7.98718 4 7.98718H16V10.6496H9.33333C7.128 10.6496 5.33333 12.4414 5.33333 14.6432V58.5726H4ZM52 66.5598C52.736 66.5598 53.3333 65.9635 53.3333 65.2286V14.6432C53.3333 13.9083 52.736 13.312 52 13.312H32V10.6496H46.6667V9.31838C46.6667 8.58356 46.0693 7.98718 45.3333 7.98718H29.3333H26.6667V6.65598C26.6667 4.45418 24.872 2.66239 22.6667 2.66239C20.4613 2.66239 18.6667 4.45418 18.6667 6.65598V7.98718V17.3056C18.6667 19.5074 20.4613 21.2991 22.6667 21.2991C24.872 21.2991 26.6667 19.5074 26.6667 17.3056V15.9717C26.6667 15.2369 26.0693 14.6405 25.3333 14.6405C24.5973 14.6405 24 15.2369 24 15.9717V18.6368H21.3333V15.9717C21.3333 13.7699 23.128 11.9781 25.3333 11.9781C27.5387 11.9781 29.3333 13.7699 29.3333 15.9717V17.3056C29.3333 20.9757 26.3427 23.9615 22.6667 23.9615C18.9907 23.9615 16 20.9757 16 17.3056V13.312H9.33333C8.59733 13.312 8 13.9083 8 14.6432V65.2286C8 65.9635 8.59733 66.5598 9.33333 66.5598H52ZM32 15.9744H45.3333V18.6368H32V15.9744ZM45.3333 21.2991H32V23.9615H45.3333V21.2991ZM16 31.9487H45.3333V34.6111H16V31.9487ZM45.3333 37.2735H16V39.9359H45.3333V37.2735ZM16 42.5983H45.3333V45.2607H16V42.5983ZM17.3333 53.2479H44C44.736 53.2479 45.3333 52.6515 45.3333 51.9167V49.2543C45.3333 48.5195 44.736 47.9231 44 47.9231H17.3333C16.5973 47.9231 16 48.5195 16 49.2543V51.9167C16 52.6515 16.5973 53.2479 17.3333 53.2479Z" fill="#3D4A62"/>
</svg>
