<svg width="30" height="20" viewBox="0 0 30 20" fill="none" xmlns="http://www.w3.org/2000/svg">
<path fill-rule="evenodd" clip-rule="evenodd" d="M28.83 0.871094C29.1767 0.871094 29.458 1.15243 29.458 1.49914V19.0688C29.458 19.4155 29.1767 19.6968 28.83 19.6968H12.9923H1.15208C0.80537 19.6968 0.524038 19.4155 0.524038 19.0688L0.524359 1.49914C0.524359 1.15243 0.80538 0.871094 1.1524 0.871094H28.83ZM1.7809 18.4407H12.6844L16.494 8.5189C16.7064 8.2446 17.1009 8.1943 17.3752 8.40674C17.6494 8.61919 17.6998 9.01364 17.4873 9.28792L14.2727 18.441L28.2015 18.4407V2.12697H1.78026L1.7809 18.4407ZM20.9234 8.10413C20.9234 8.45084 21.2047 8.73218 21.5514 8.73218C21.8984 8.73218 22.1794 8.45116 22.1794 8.10413V3.58104C22.1794 3.23434 21.8981 2.953 21.5514 2.953C21.2047 2.953 20.9234 3.23433 20.9234 3.58104V8.10413ZM14.9914 8.73218C14.6447 8.73218 14.3634 8.45084 14.3634 8.10413V3.58104C14.3634 3.23433 14.6447 2.953 14.9914 2.953C15.3381 2.953 15.6195 3.23434 15.6195 3.58104V8.10413C15.6195 8.45116 15.3384 8.73218 14.9914 8.73218ZM7.80421 8.10413C7.80421 8.45084 8.08554 8.73218 8.43225 8.73218C8.77895 8.73218 9.06029 8.45116 9.06029 8.10413V3.58104C9.06029 3.23434 8.77895 2.953 8.43225 2.953C8.08555 2.953 7.80421 3.23433 7.80421 3.58104V8.10413Z" fill="#E45757"/>
</svg>
