<svg width="41" height="20" viewBox="0 0 41 20" fill="none" xmlns="http://www.w3.org/2000/svg">
<path fill-rule="evenodd" clip-rule="evenodd" d="M28.2669 0.89508L28.2736 0.99969L28.0893 13.1451C28.0872 13.5007 27.8227 13.7922 27.4816 13.8409L27.3772 13.848L20.043 13.8342L20.0698 13.7558C20.1597 13.4193 19.9898 13.0584 19.6587 12.9201C19.2979 12.7681 18.8829 12.939 18.732 13.3002L18.5921 13.8315L15.0358 13.8248L14.8458 13.0776L14.7995 12.9834C14.6247 12.6855 14.2539 12.5529 13.9239 12.686C13.5614 12.8313 13.3847 13.2445 13.5324 13.6079L13.5868 13.8221L4.22625 13.8046L4.28062 13.5981L4.31412 13.4989C4.39988 13.1651 4.2301 12.809 3.90174 12.6718C3.54096 12.5198 3.12591 12.6907 2.97388 13.0515L2.77624 13.8018L1.51031 13.7995C1.15508 13.7963 0.862298 13.5323 0.81371 13.1905L0.806641 13.0858L0.99218 0.940767C0.99318 0.581827 1.26236 0.287412 1.60911 0.243813L1.70546 0.238281L27.57 0.286001C27.9263 0.289515 28.2191 0.553526 28.2669 0.89508ZM2.77624 13.8018L2.26263 15.7518L2.22908 15.8513C2.14324 16.1858 2.31424 16.5413 2.64152 16.678C2.72945 16.7149 2.81994 16.7329 2.911 16.7338C3.18972 16.7357 3.45424 16.5712 3.56938 16.2984L4.22625 13.8046L2.77624 13.8018ZM13.5868 13.8221L14.2203 16.3172L14.2691 16.4149C14.3984 16.6307 14.6301 16.759 14.874 16.7608C14.9626 16.7608 15.0547 16.7435 15.1421 16.7088C15.5062 16.5627 15.6814 16.1503 15.5349 15.7873L15.0358 13.8248L13.5868 13.8221ZM18.5921 13.8315L18.0208 16.0005L17.9894 16.0916C17.8985 16.4286 18.0696 16.7888 18.3997 16.9267C18.4876 16.9636 18.5781 16.9815 18.6691 16.9824C18.9479 16.9844 19.2124 16.8199 19.3275 16.5471L20.0388 13.8468L20.043 13.8342L18.5921 13.8315ZM6.48371 14.7279C7.68729 14.7358 8.6591 15.7206 8.65238 16.9246C8.64447 18.1282 7.6581 19.1008 6.45452 19.0928C5.25095 19.0849 4.27954 18.099 4.28627 16.895C4.29536 15.6918 5.28014 14.72 6.48371 14.7279ZM7.56243 16.9174C7.56718 16.3152 7.07952 15.8202 6.47575 15.8163C5.87317 15.8127 5.37978 16.2996 5.37699 16.9038C5.37224 17.5059 5.85913 17.9993 6.46171 18.0029C7.06507 18.0081 7.55768 17.5196 7.56243 16.9174ZM13.4934 16.9562C13.4855 18.1597 12.4992 19.1323 11.2956 19.1244C10.092 19.1165 9.12019 18.1317 9.1281 16.9282C9.13642 15.7234 10.1212 14.7516 11.3248 14.7595C12.5283 14.7674 13.4998 15.7534 13.4934 16.9562ZM10.2394 16.9348C10.2441 16.3445 10.7263 15.867 11.317 15.8704C11.9073 15.8751 12.3856 16.3589 12.3821 16.9496C12.3775 17.5399 11.8937 18.0181 11.3034 18.0135C10.7127 18.0101 10.2344 17.5263 10.2394 16.9348ZM24.4622 17.0824C24.4555 18.2863 23.4691 19.2589 22.2655 19.251C21.0624 19.2419 20.0894 18.2567 20.0985 17.0536C20.1064 15.85 21.0916 14.877 22.2951 14.8849C23.4975 14.8924 24.4713 15.8792 24.4622 17.0824ZM2.40296 1.65826L26.8532 1.69837L26.6777 12.426L2.22703 12.3871L2.40296 1.65826ZM21.1607 17.0605C21.1652 16.4437 21.671 15.9438 22.2878 15.9483C22.9051 15.9516 23.4037 16.457 23.4 17.0754C23.3967 17.6927 22.8913 18.1913 22.2729 18.1876C21.656 18.1831 21.1562 17.6773 21.1607 17.0605ZM38.9444 9.11768L39.0178 9.30711L40.1881 12.6497C40.2043 12.695 40.2153 12.7438 40.2223 12.7926L40.2261 12.9099L39.8617 17.2393C39.8329 17.5749 39.5747 17.8391 39.2501 17.8822L39.151 17.8884L38.1683 17.8811C37.7772 17.8788 37.462 17.5597 37.4642 17.1686C37.4674 16.8133 37.7314 16.5206 38.0732 16.472L38.1779 16.4649L38.5058 16.4666L38.7578 13.4694L35.2186 12.8612C33.853 12.6258 32.8124 11.4892 32.683 10.1242L32.6714 9.94493L32.6252 8.64462L32.0769 8.64119L31.7499 13.6557L31.1372 17.1272C31.1355 17.4817 30.8716 17.7744 30.5298 17.823L30.4251 17.8301L26.4287 17.8033C26.0388 17.8014 25.7224 17.482 25.7258 17.0912C25.7279 16.7356 25.9918 16.4428 26.3336 16.3942L26.4383 16.3871L29.7252 16.4093L30.3339 13.6263L30.3351 13.5843L30.7081 7.88253C30.7302 7.54224 30.9898 7.2717 31.3188 7.22692L31.4194 7.22041L36.141 7.25193C37.3675 7.26028 38.4688 8.00156 38.9444 9.11768ZM36.7465 17.163C36.754 15.9606 35.7814 14.9742 34.5778 14.9663C33.3754 14.9588 32.3891 15.9314 32.3812 17.135C32.3733 18.3385 33.3463 19.3237 34.5486 19.3312C35.7522 19.3391 36.7382 18.3677 36.7465 17.163ZM35.6391 17.1564C35.6434 16.5633 35.1636 16.0763 34.5701 16.0733C33.977 16.069 33.4912 16.5492 33.4874 17.1411C33.4839 17.7358 33.9629 18.2212 34.556 18.2254C35.1491 18.2297 35.6349 17.7495 35.6391 17.1564ZM36.1326 8.66852L36.2806 8.67606C36.916 8.73725 37.4682 9.16445 37.6821 9.7754L38.4526 11.9793L35.4585 11.4647L35.3169 11.4339C34.6209 11.2498 34.1128 10.6237 34.087 9.89475L34.0438 8.65504L36.1326 8.66852Z" fill="#E45757"/>
</svg>
