<svg width="30" height="20" viewBox="0 0 30 20" fill="none" xmlns="http://www.w3.org/2000/svg">
<path fill-rule="evenodd" clip-rule="evenodd" d="M28.8302 0.871094C29.1769 0.871094 29.4583 1.15243 29.4583 1.49914V19.0688C29.4583 19.4155 29.1769 19.6968 28.8302 19.6968H12.9926H1.15232C0.805614 19.6968 0.524282 19.4155 0.524282 19.0688L0.524603 1.49914C0.524603 1.15243 0.805624 0.871094 1.15265 0.871094H28.8302ZM1.78115 18.4407H12.6846L16.4942 8.5189C16.7067 8.2446 17.1011 8.1943 17.3754 8.40674C17.6497 8.61919 17.7 9.01364 17.4876 9.28792L14.2729 18.441L28.2017 18.4407V2.12697H1.78051L1.78115 18.4407ZM20.9236 8.10413C20.9236 8.45084 21.2049 8.73218 21.5516 8.73218C21.8987 8.73218 22.1797 8.45116 22.1797 8.10413V3.58104C22.1797 3.23434 21.8984 2.953 21.5516 2.953C21.2049 2.953 20.9236 3.23433 20.9236 3.58104V8.10413ZM14.9917 8.73218C14.6449 8.73218 14.3636 8.45084 14.3636 8.10413V3.58104C14.3636 3.23433 14.645 2.953 14.9917 2.953C15.3384 2.953 15.6197 3.23434 15.6197 3.58104V8.10413C15.6197 8.45116 15.3387 8.73218 14.9917 8.73218ZM7.80445 8.10413C7.80445 8.45084 8.08578 8.73218 8.4325 8.73218C8.7792 8.73218 9.06054 8.45116 9.06054 8.10413V3.58104C9.06054 3.23434 8.7792 2.953 8.4325 2.953C8.08579 2.953 7.80445 3.23433 7.80445 3.58104V8.10413Z" fill="#36C3FC"/>
</svg>
